<?xml version="1.0" encoding="UTF-8"?>
<!--Generator: CustomSymbols by @serious_bret-->
<!DOCTYPE svg
PUBLIC "-//W3C//DTD SVG 1.1//EN"
       "http://www.w3.org/Graphics/SVG/1.1/DTD/svg11.dtd">
<svg version="1.1" xmlns="http://www.w3.org/2000/svg" xmlns:xlink="http://www.w3.org/1999/xlink" width="3300" height="2200">
 <g id="Notes">
  <rect height="2200" id="artboard" style="fill:white;opacity:1" width="3300" x="0" y="0"/>
  <line id="" style="fill:none;stroke:black;opacity:1;stroke-width:0.5;" x1="263" x2="3036" y1="292" y2="292"/>
  <text id="reftext1" style="stroke:none;fill:black;font-family:-apple-system,&quot;SF Pro Display&quot;,&quot;SF Pro Text&quot;,Helvetica,sans-serif;font-weight:bold;" transform="matrix(1 0 0 1 263 322)">Weight/Scale Variations</text>
  <text id="reftext2" style="stroke:none;fill:black;font-family:-apple-system,&quot;SF Pro Display&quot;,&quot;SF Pro Text&quot;,Helvetica,sans-serif;text-anchor:middle;" transform="matrix(1 0 0 1 559.711 322)">Ultralight</text>
  <text style="stroke:none;fill:black;font-family:-apple-system,&quot;SF Pro Display&quot;,&quot;SF Pro Text&quot;,Helvetica,sans-serif;text-anchor:middle;" transform="matrix(1 0 0 1 856.422 322)">Thin</text>
  <text style="stroke:none;fill:black;font-family:-apple-system,&quot;SF Pro Display&quot;,&quot;SF Pro Text&quot;,Helvetica,sans-serif;text-anchor:middle;" transform="matrix(1 0 0 1 1153.13 322)">Light</text>
  <text style="stroke:none;fill:black;font-family:-apple-system,&quot;SF Pro Display&quot;,&quot;SF Pro Text&quot;,Helvetica,sans-serif;text-anchor:middle;" transform="matrix(1 0 0 1 1449.84 322)">Regular</text>
  <text style="stroke:none;fill:black;font-family:-apple-system,&quot;SF Pro Display&quot;,&quot;SF Pro Text&quot;,Helvetica,sans-serif;text-anchor:middle;" transform="matrix(1 0 0 1 1746.56 322)">Medium</text>
  <text style="stroke:none;fill:black;font-family:-apple-system,&quot;SF Pro Display&quot;,&quot;SF Pro Text&quot;,Helvetica,sans-serif;text-anchor:middle;" transform="matrix(1 0 0 1 2043.27 322)">Semibold</text>
  <text style="stroke:none;fill:black;font-family:-apple-system,&quot;SF Pro Display&quot;,&quot;SF Pro Text&quot;,Helvetica,sans-serif;text-anchor:middle;" transform="matrix(1 0 0 1 2339.98 322)">Bold</text>
  <text style="stroke:none;fill:black;font-family:-apple-system,&quot;SF Pro Display&quot;,&quot;SF Pro Text&quot;,Helvetica,sans-serif;text-anchor:middle;" transform="matrix(1 0 0 1 2636.69 322)">Heavy</text>
  <text style="stroke:none;fill:black;font-family:-apple-system,&quot;SF Pro Display&quot;,&quot;SF Pro Text&quot;,Helvetica,sans-serif;text-anchor:middle;" transform="matrix(1 0 0 1 2933.4 322)">Black</text>
  <line id="" style="fill:none;stroke:black;opacity:1;stroke-width:0.5;" x1="263" x2="3036" y1="1903" y2="1903"/>
  <g id="" transform="matrix(1 0 0 1 263 1933)">
   <path d="M9.24805 0.830078C13.5547 0.830078 17.1387-2.74414 17.1387-7.05078C17.1387-11.3574 13.5449-14.9316 9.23828-14.9316C4.94141-14.9316 1.36719-11.3574 1.36719-7.05078C1.36719-2.74414 4.95117 0.830078 9.24805 0.830078ZM9.24805-0.654297C5.70312-0.654297 2.87109-3.49609 2.87109-7.05078C2.87109-10.6055 5.69336-13.4473 9.23828-13.4473C12.793-13.4473 15.6348-10.6055 15.6445-7.05078C15.6543-3.49609 12.8027-0.654297 9.24805-0.654297ZM6.39648-6.31836L8.50586-6.31836L8.50586-4.19922C8.50586-3.75977 8.79883-3.45703 9.22852-3.45703C9.67773-3.45703 9.9707-3.75977 9.9707-4.19922L9.9707-6.31836L12.0996-6.31836C12.5391-6.31836 12.8418-6.61133 12.8418-7.04102C12.8418-7.48047 12.5391-7.7832 12.0996-7.7832L9.9707-7.7832L9.9707-9.89258C9.9707-10.3418 9.67773-10.6445 9.22852-10.6445C8.79883-10.6445 8.50586-10.3418 8.50586-9.89258L8.50586-7.7832L6.39648-7.7832C5.94727-7.7832 5.64453-7.48047 5.64453-7.04102C5.64453-6.61133 5.94727-6.31836 6.39648-6.31836Z"/>
  </g>
  <g id="" transform="matrix(1 0 0 1 281.506 1933)">
   <path d="M11.709 2.91016C17.1582 2.91016 21.6699-1.61133 21.6699-7.05078C21.6699-12.5 17.1484-17.0117 11.6992-17.0117C6.25977-17.0117 1.74805-12.5 1.74805-7.05078C1.74805-1.61133 6.26953 2.91016 11.709 2.91016ZM11.709 1.25C7.09961 1.25 3.41797-2.44141 3.41797-7.05078C3.41797-11.6602 7.08984-15.3516 11.6992-15.3516C16.3086-15.3516 20-11.6602 20.0098-7.05078C20.0195-2.44141 16.3184 1.25 11.709 1.25ZM7.98828-6.23047L10.8789-6.23047L10.8789-3.32031C10.8789-2.83203 11.2109-2.5 11.6895-2.5C12.1777-2.5 12.5195-2.83203 12.5195-3.32031L12.5195-6.23047L15.4297-6.23047C15.918-6.23047 16.25-6.5625 16.25-7.04102C16.25-7.5293 15.918-7.87109 15.4297-7.87109L12.5195-7.87109L12.5195-10.7617C12.5195-11.2695 12.1777-11.6016 11.6895-11.6016C11.2109-11.6016 10.8789-11.2598 10.8789-10.7617L10.8789-7.87109L7.98828-7.87109C7.48047-7.87109 7.14844-7.5293 7.14844-7.04102C7.14844-6.5625 7.49023-6.23047 7.98828-6.23047Z"/>
  </g>
  <g id="" transform="matrix(1 0 0 1 304.924 1933)">
   <path d="M14.9707 5.66406C21.9336 5.66406 27.6953-0.0976562 27.6953-7.05078C27.6953-14.0137 21.9238-19.7754 14.9609-19.7754C8.00781-19.7754 2.25586-14.0137 2.25586-7.05078C2.25586-0.0976562 8.01758 5.66406 14.9707 5.66406ZM14.9707 3.84766C8.93555 3.84766 4.08203-1.01562 4.08203-7.05078C4.08203-13.0957 8.92578-17.9492 14.9609-17.9492C21.0059-17.9492 25.8594-13.0957 25.8691-7.05078C25.8789-1.01562 21.0156 3.84766 14.9707 3.84766ZM10.0586-6.14258L14.0625-6.14258L14.0625-2.12891C14.0625-1.5918 14.4336-1.2207 14.9512-1.2207C15.4883-1.2207 15.8594-1.5918 15.8594-2.12891L15.8594-6.14258L19.8828-6.14258C20.4102-6.14258 20.791-6.51367 20.791-7.03125C20.791-7.56836 20.4199-7.94922 19.8828-7.94922L15.8594-7.94922L15.8594-11.9531C15.8594-12.5098 15.4883-12.8809 14.9512-12.8809C14.4336-12.8809 14.0625-12.5 14.0625-11.9531L14.0625-7.94922L10.0586-7.94922C9.50195-7.94922 9.13086-7.56836 9.13086-7.03125C9.13086-6.51367 9.51172-6.14258 10.0586-6.14258Z"/>
  </g>
  <text style="stroke:none;fill:black;font-family:-apple-system,&quot;SF Pro Display&quot;,&quot;SF Pro Text&quot;,Helvetica,sans-serif;font-weight:bold;" transform="matrix(1 0 0 1 263 1953)">Design Variations</text>
  <text style="stroke:none;fill:black;font-family:-apple-system,&quot;SF Pro Display&quot;,&quot;SF Pro Text&quot;,Helvetica,sans-serif;" transform="matrix(1 0 0 1 263 1971)">Symbols are supported in up to nine weights and three scales.</text>
  <text style="stroke:none;fill:black;font-family:-apple-system,&quot;SF Pro Display&quot;,&quot;SF Pro Text&quot;,Helvetica,sans-serif;" transform="matrix(1 0 0 1 263 1989)">For optimal layout with text and other symbols, vertically align</text>
  <text style="stroke:none;fill:black;font-family:-apple-system,&quot;SF Pro Display&quot;,&quot;SF Pro Text&quot;,Helvetica,sans-serif;" transform="matrix(1 0 0 1 263 2007)">symbols with the adjacent text.</text>
  <line id="" style="fill:none;stroke:#00AEEF;stroke-width:0.5;opacity:1.0;" x1="776" x2="776" y1="1919" y2="1933"/>
  <g id="" transform="matrix(1 0 0 1 776 1933)">
   <path d="M3.31055 0.126953C3.82812 0.126953 4.08203-0.0683594 4.26758-0.605469L5.52734-4.0625L11.2891-4.0625L12.5488-0.605469C12.7344-0.0683594 12.9883 0.126953 13.4961 0.126953C14.0137 0.126953 14.3457-0.185547 14.3457-0.673828C14.3457-0.839844 14.3164-0.986328 14.2383-1.20117L9.6582-13.3887C9.43359-13.9941 9.0332-14.2871 8.4082-14.2871C7.80273-14.2871 7.39258-13.9941 7.17773-13.3984L2.59766-1.19141C2.51953-0.976562 2.49023-0.830078 2.49023-0.664062C2.49023-0.175781 2.80273 0.126953 3.31055 0.126953ZM6.00586-5.53711L8.37891-12.1094L8.42773-12.1094L10.8008-5.53711Z"/>
  </g>
  <line id="" style="fill:none;stroke:#00AEEF;stroke-width:0.5;opacity:1.0;" x1="792.836" x2="792.836" y1="1919" y2="1933"/>
  <text style="stroke:none;fill:black;font-family:-apple-system,&quot;SF Pro Display&quot;,&quot;SF Pro Text&quot;,Helvetica,sans-serif;font-weight:bold;" transform="matrix(1 0 0 1 776 1953)">Margins</text>
  <text style="stroke:none;fill:black;font-family:-apple-system,&quot;SF Pro Display&quot;,&quot;SF Pro Text&quot;,Helvetica,sans-serif;" transform="matrix(1 0 0 1 776 1971)">Leading and trailing margins on the left and right side of each symbol</text>
  <text style="stroke:none;fill:black;font-family:-apple-system,&quot;SF Pro Display&quot;,&quot;SF Pro Text&quot;,Helvetica,sans-serif;" transform="matrix(1 0 0 1 776 1989)">can be adjusted by modifying the x-location of the margin guidelines.</text>
  <text style="stroke:none;fill:black;font-family:-apple-system,&quot;SF Pro Display&quot;,&quot;SF Pro Text&quot;,Helvetica,sans-serif;" transform="matrix(1 0 0 1 776 2007)">Modifications are automatically applied proportionally to all</text>
  <text style="stroke:none;fill:black;font-family:-apple-system,&quot;SF Pro Display&quot;,&quot;SF Pro Text&quot;,Helvetica,sans-serif;" transform="matrix(1 0 0 1 776 2025)">scales and weights.</text>
  <g id="" transform="matrix(1 0 0 1 1289 1933)">
   <path d="M2.8418 1.86523L4.54102 3.57422C5.40039 4.44336 6.38672 4.38477 7.31445 3.35938L17.4902-7.85156C17.7539-7.76367 18.0273-7.7832 18.3398-7.8418L19.4043-8.03711L20.0684-7.36328L20.0293-6.80664C19.9902-6.30859 20.1172-5.92773 20.6055-5.44922L21.3672-4.70703C21.8457-4.22852 22.4609-4.19922 22.9297-4.66797L25.8398-7.58789C26.3086-8.05664 26.2891-8.65234 25.8105-9.13086L25.0391-9.89258C24.5605-10.3711 24.1895-10.5273 23.7109-10.4883L23.1348-10.4395L22.4902-11.0742L22.7344-12.1973C22.8613-12.7637 22.7051-13.2031 22.1191-13.7891L19.9219-15.9766C16.582-19.2969 12.1484-19.2188 9.25781-16.3281C8.83789-15.918 8.80859-15.3418 9.04297-14.9512C9.27734-14.5898 9.73633-14.3555 10.3809-14.5215C11.8457-14.8633 13.3691-14.9219 14.7949-13.9844L14.209-12.5293C14.0137-12.0508 13.9844-11.6504 14.1113-11.2891L3.04688-0.898438C2.06055 0.0195312 1.98242 0.996094 2.8418 1.86523ZM10.752-15.957C13.1836-17.7344 16.4746-17.4316 18.7012-15.2051L21.1328-12.793C21.3672-12.5586 21.4062-12.373 21.3379-12.0312L21.0156-10.5469L22.5195-9.0625L23.5059-9.12109C23.7598-9.13086 23.8379-9.11133 24.0332-8.91602L24.6094-8.33984L22.168-5.89844L21.5918-6.47461C21.3965-6.66992 21.3672-6.74805 21.377-7.01172L21.4453-7.98828L19.9512-9.47266L18.4277-9.21875C18.1055-9.15039 17.959-9.17969 17.7148-9.41406L15.7129-11.416C15.459-11.6504 15.4297-11.8164 15.5859-12.1875L16.4648-14.2773C14.9023-15.7324 12.8711-16.3574 10.8398-15.7617C10.6836-15.7227 10.625-15.8496 10.752-15.957ZM5.27344 2.30469L4.10156 1.14258C3.63281 0.683594 3.74023 0.341797 4.14062-0.0195312L14.9512-10.1953L16.416-8.71094L6.42578 2.27539C6.07422 2.67578 5.74219 2.77344 5.27344 2.30469Z"/>
  </g>
  <text style="stroke:none;fill:black;font-family:-apple-system,&quot;SF Pro Display&quot;,&quot;SF Pro Text&quot;,Helvetica,sans-serif;font-weight:bold;" transform="matrix(1 0 0 1 1289 1953)">Exporting</text>
  <text style="stroke:none;fill:black;font-family:-apple-system,&quot;SF Pro Display&quot;,&quot;SF Pro Text&quot;,Helvetica,sans-serif;" transform="matrix(1 0 0 1 1289 1971)">Symbols should be outlined when exporting to ensure the</text>
  <text style="stroke:none;fill:black;font-family:-apple-system,&quot;SF Pro Display&quot;,&quot;SF Pro Text&quot;,Helvetica,sans-serif;" transform="matrix(1 0 0 1 1289 1989)">design is preserved when submitting to Xcode.</text>
  <text id="template-version" style="stroke:none;fill:black;font-family:-apple-system,&quot;SF Pro Display&quot;,&quot;SF Pro Text&quot;,Helvetica,sans-serif;text-anchor:end;" transform="matrix(1 0 0 1 3036 1933)">Template v.2.0</text>
  <text style="stroke:none;fill:black;font-family:-apple-system,&quot;SF Pro Display&quot;,&quot;SF Pro Text&quot;,Helvetica,sans-serif;text-anchor:end;" transform="matrix(1 0 0 1 3036 1951)">Requires Xcode 12 or greater</text>
  <text style="stroke:none;fill:black;font-family:-apple-system,&quot;SF Pro Display&quot;,&quot;SF Pro Text&quot;,Helvetica,sans-serif;" transform="matrix(1 0 0 1 263 726)">Small</text>
  <text style="stroke:none;fill:black;font-family:-apple-system,&quot;SF Pro Display&quot;,&quot;SF Pro Text&quot;,Helvetica,sans-serif;" transform="matrix(1 0 0 1 263 1156)">Medium</text>
  <text style="stroke:none;fill:black;font-family:-apple-system,&quot;SF Pro Display&quot;,&quot;SF Pro Text&quot;,Helvetica,sans-serif;" transform="matrix(1 0 0 1 263 1586)">Large</text>
 </g>
 <g id="Guides">
  <g id="H-reference" style="fill:#27AAE1;stroke:none;" transform="matrix(1 0 0 1 339 696)">
   <path d="M0.976562 0L3.66211 0L12.9883-24.4629L45.752-24.4629L55.127 0L57.7637 0L30.6152-70.459L28.125-70.459ZM29.3457-67.1387L29.4434-67.1387L44.873-26.709L13.8672-26.709Z"/>
  </g>
  <line id="Baseline-S" style="fill:none;stroke:#27AAE1;opacity:1;stroke-width:0.5;" x1="263" x2="3036" y1="696" y2="696"/>
  <line id="Capline-S" style="fill:none;stroke:#27AAE1;opacity:1;stroke-width:0.5;" x1="263" x2="3036" y1="625.541" y2="625.541"/>
  <g id="H-reference" style="fill:#27AAE1;stroke:none;" transform="matrix(1 0 0 1 339 1126)">
   <path d="M0.976562 0L3.66211 0L12.9883-24.4629L45.752-24.4629L55.127 0L57.7637 0L30.6152-70.459L28.125-70.459ZM29.3457-67.1387L29.4434-67.1387L44.873-26.709L13.8672-26.709Z"/>
  </g>
  <line id="Baseline-M" style="fill:none;stroke:#27AAE1;opacity:1;stroke-width:0.5;" x1="263" x2="3036" y1="1126" y2="1126"/>
  <line id="Capline-M" style="fill:none;stroke:#27AAE1;opacity:1;stroke-width:0.5;" x1="263" x2="3036" y1="1055.54" y2="1055.54"/>
  <g id="H-reference" style="fill:#27AAE1;stroke:none;" transform="matrix(1 0 0 1 339 1556)">
   <path d="M0.976562 0L3.66211 0L12.9883-24.4629L45.752-24.4629L55.127 0L57.7637 0L30.6152-70.459L28.125-70.459ZM29.3457-67.1387L29.4434-67.1387L44.873-26.709L13.8672-26.709Z"/>
  </g>
  <line id="Baseline-L" style="fill:none;stroke:#27AAE1;opacity:1;stroke-width:0.5;" x1="263" x2="3036" y1="1556" y2="1556"/>
  <line id="Capline-L" style="fill:none;stroke:#27AAE1;opacity:1;stroke-width:0.5;" x1="263" x2="3036" y1="1485.54" y2="1485.54"/>
  <line id="left-margin" x1="1381.779644746555" x2="1381.779644746555" y1="1030.79" y2="1150.12" style="fill:none;stroke:#00AEEF;stroke-width:0.5;opacity:1.0;"/>
  <line id="right-margin" x1="1520.4803552534447" x2="1520.4803552534447" y1="1030.79" y2="1150.12" style="fill:none;stroke:#00AEEF;stroke-width:0.5;opacity:1.0;"/>
 </g>
 <g id="Symbols">
  <g id="Black-L" transform="matrix(1.0,0.0,0.0,1.0,2845.218041723056,1431.308061254306)">  <path xmlns:xlink="http://www.w3.org/1999/xlink" stroke-width="1px" stroke-linejoin="miter" stroke-dasharray="none" y="0px" fill-opacity="1" stroke-linecap="butt" fill="#000000" version="1.1" x="0px" stroke="none" xml:space="preserve" stroke-opacity="1" stroke-miterlimit="4" fill-rule="nonzero" d="M135.206,71.248C136.482,64.846,132.89,58.113,127.176,55.256C119.213,51.274,105.933,54.823,99.938,56.787C99.844,56.757,99.749,56.728,99.654,56.698C93.23,66.02,89.462,77.309,89.462,89.462C89.462,101.615,93.23,112.903,99.654,122.226C99.749,122.196,99.844,122.167,99.938,122.137C105.934,124.101,119.213,127.65,127.176,123.668C132.89,120.811,136.482,114.078,135.206,107.676C134.681,106.421,133.644,103.359,133.572,103.121C132.267,98.793,131.562,94.209,131.562,89.462C131.562,84.715,132.267,80.13,133.572,75.803C133.645,75.565,134.681,72.503,135.206,71.248ZM135.206,71.248"/>
  <path stroke-linejoin="miter" xml:space="preserve" stroke-opacity="1" stroke="none" stroke-width="1px" stroke-linecap="butt" version="1.1" fill="#000000" fill-opacity="1" xmlns:xlink="http://www.w3.org/1999/xlink" stroke-miterlimit="4" x="0px" y="0px" fill-rule="nonzero" stroke-dasharray="none" d="M30.403,62.573C9.134,73.483,0,89.462,0,89.462C0,89.462,9.134,105.44,30.403,116.351C37.593,109.624,42.1,100.061,42.1,89.462C42.1,78.862,37.593,69.3,30.403,62.573ZM21.049,89.462C18.143,89.462,15.787,87.106,15.787,84.199C15.787,81.293,18.143,78.937,21.049,78.937C23.956,78.937,26.312,81.293,26.312,84.199C26.312,87.106,23.956,89.462,21.049,89.462ZM21.049,89.462"/>
  <path stroke-linejoin="miter" stroke-dasharray="none" y="0px" stroke-miterlimit="4" stroke-opacity="1" stroke-width="1px" version="1.1" stroke-linecap="butt" xml:space="preserve" fill="#000000" x="0px" fill-opacity="1" fill-rule="nonzero" xmlns:xlink="http://www.w3.org/1999/xlink" stroke="none" d="M88.843,54.018C85.996,51.815,82.478,49.233,79.99,47.888C64.145,39.324,55.263,47.811,50.893,55.134C47.295,55.963,43.91,56.969,40.728,58.108C48.126,66.466,52.625,77.447,52.625,89.462C52.625,101.477,48.126,112.457,40.727,120.816C43.91,121.956,47.294,122.962,50.892,123.791C55.263,131.114,64.144,139.6,79.989,131.036C82.478,129.691,85.996,127.109,88.842,124.906C88.845,124.905,88.848,124.905,88.852,124.904C82.562,114.56,78.937,102.426,78.937,89.462C78.937,76.498,82.562,64.364,88.852,54.02C88.849,54.02,88.846,54.019,88.843,54.018ZM88.843,54.018"/>
  <path fill="#000000" stroke-opacity="1" xmlns:xlink="http://www.w3.org/1999/xlink" xml:space="preserve" stroke-width="1px" fill-rule="nonzero" stroke-linejoin="miter" fill-opacity="1" stroke-dasharray="none" stroke="none" stroke-linecap="butt" version="1.1" x="0px" y="0px" stroke-miterlimit="4" d="M163.137,68.412L146.16,72.656C143.563,77.699,142.087,83.409,142.087,89.462C142.087,95.514,143.563,101.225,146.16,106.268L163.137,110.512C163.137,110.512,178.924,105.249,178.924,89.462C178.924,73.675,163.137,68.412,163.137,68.412ZM163.137,68.412"/>
</g>
  <g id="Heavy-L" transform="matrix(1.0,0.0,0.0,1.0,2548.508041723056,1431.308061254306)">  <path xml:space="preserve" stroke-linejoin="miter" fill-opacity="1" stroke-width="1px" x="0px" y="0px" fill-rule="nonzero" xmlns:xlink="http://www.w3.org/1999/xlink" stroke-linecap="butt" stroke-dasharray="none" stroke="none" fill="#000000" version="1.1" stroke-miterlimit="4" stroke-opacity="1" d="M135.206,71.248C136.482,64.846,132.89,58.113,127.176,55.256C119.213,51.274,105.933,54.823,99.938,56.787C99.844,56.757,99.749,56.728,99.654,56.698C93.23,66.02,89.462,77.309,89.462,89.462C89.462,101.615,93.23,112.903,99.654,122.226C99.749,122.196,99.844,122.167,99.938,122.137C105.934,124.101,119.213,127.65,127.176,123.668C132.89,120.811,136.482,114.078,135.206,107.676C134.681,106.421,133.644,103.359,133.572,103.121C132.267,98.793,131.562,94.209,131.562,89.462C131.562,84.715,132.267,80.13,133.572,75.803C133.645,75.565,134.681,72.503,135.206,71.248ZM135.206,71.248"/>
  <path version="1.1" x="0px" stroke="none" y="0px" stroke-width="1px" stroke-dasharray="none" fill-opacity="1" stroke-miterlimit="4" stroke-linejoin="miter" stroke-linecap="butt" xmlns:xlink="http://www.w3.org/1999/xlink" stroke-opacity="1" fill-rule="nonzero" fill="#000000" xml:space="preserve" d="M30.403,62.573C9.134,73.483,0,89.462,0,89.462C0,89.462,9.134,105.44,30.403,116.351C37.593,109.624,42.1,100.061,42.1,89.462C42.1,78.862,37.593,69.3,30.403,62.573ZM21.049,89.462C18.143,89.462,15.787,87.106,15.787,84.199C15.787,81.293,18.143,78.937,21.049,78.937C23.956,78.937,26.312,81.293,26.312,84.199C26.312,87.106,23.956,89.462,21.049,89.462ZM21.049,89.462"/>
  <path fill-opacity="1" stroke-dasharray="none" stroke-miterlimit="4" stroke-opacity="1" fill-rule="nonzero" xmlns:xlink="http://www.w3.org/1999/xlink" fill="#000000" stroke="none" x="0px" y="0px" xml:space="preserve" stroke-width="1px" version="1.1" stroke-linejoin="miter" stroke-linecap="butt" d="M88.843,54.018C85.996,51.815,82.478,49.233,79.99,47.888C64.145,39.324,55.263,47.811,50.893,55.134C47.295,55.963,43.91,56.969,40.728,58.108C48.126,66.466,52.625,77.447,52.625,89.462C52.625,101.477,48.126,112.457,40.727,120.816C43.91,121.956,47.294,122.962,50.892,123.791C55.263,131.114,64.144,139.6,79.989,131.036C82.478,129.691,85.996,127.109,88.842,124.906C88.845,124.905,88.848,124.905,88.852,124.904C82.562,114.56,78.937,102.426,78.937,89.462C78.937,76.498,82.562,64.364,88.852,54.02C88.849,54.02,88.846,54.019,88.843,54.018ZM88.843,54.018"/>
  <path x="0px" stroke-opacity="1" stroke-linejoin="miter" fill-opacity="1" y="0px" stroke-linecap="butt" fill-rule="nonzero" version="1.1" fill="#000000" stroke-width="1px" stroke-miterlimit="4" xml:space="preserve" stroke-dasharray="none" stroke="none" xmlns:xlink="http://www.w3.org/1999/xlink" d="M163.137,68.412L146.16,72.656C143.563,77.699,142.087,83.409,142.087,89.462C142.087,95.514,143.563,101.225,146.16,106.268L163.137,110.512C163.137,110.512,178.924,105.249,178.924,89.462C178.924,73.675,163.137,68.412,163.137,68.412ZM163.137,68.412"/>
</g>
  <g id="Bold-L" transform="matrix(1.0,0.0,0.0,1.0,2251.798041723056,1431.308061254306)">  <path stroke-dasharray="none" fill-rule="nonzero" xmlns:xlink="http://www.w3.org/1999/xlink" fill="#000000" x="0px" xml:space="preserve" y="0px" stroke="none" stroke-miterlimit="4" stroke-width="1px" fill-opacity="1" stroke-linejoin="miter" version="1.1" stroke-linecap="butt" stroke-opacity="1" d="M135.206,71.248C136.482,64.846,132.89,58.113,127.176,55.256C119.213,51.274,105.933,54.823,99.938,56.787C99.844,56.757,99.749,56.728,99.654,56.698C93.23,66.02,89.462,77.309,89.462,89.462C89.462,101.615,93.23,112.903,99.654,122.226C99.749,122.196,99.844,122.167,99.938,122.137C105.934,124.101,119.213,127.65,127.176,123.668C132.89,120.811,136.482,114.078,135.206,107.676C134.681,106.421,133.644,103.359,133.572,103.121C132.267,98.793,131.562,94.209,131.562,89.462C131.562,84.715,132.267,80.13,133.572,75.803C133.645,75.565,134.681,72.503,135.206,71.248ZM135.206,71.248"/>
  <path xml:space="preserve" stroke-width="1px" stroke="none" stroke-linecap="butt" stroke-miterlimit="4" stroke-dasharray="none" x="0px" version="1.1" stroke-opacity="1" fill-opacity="1" fill-rule="nonzero" stroke-linejoin="miter" fill="#000000" y="0px" xmlns:xlink="http://www.w3.org/1999/xlink" d="M30.403,62.573C9.134,73.483,0,89.462,0,89.462C0,89.462,9.134,105.44,30.403,116.351C37.593,109.624,42.1,100.061,42.1,89.462C42.1,78.862,37.593,69.3,30.403,62.573ZM21.049,89.462C18.143,89.462,15.787,87.106,15.787,84.199C15.787,81.293,18.143,78.937,21.049,78.937C23.956,78.937,26.312,81.293,26.312,84.199C26.312,87.106,23.956,89.462,21.049,89.462ZM21.049,89.462"/>
  <path xml:space="preserve" xmlns:xlink="http://www.w3.org/1999/xlink" stroke-opacity="1" stroke="none" fill="#000000" stroke-dasharray="none" y="0px" x="0px" fill-opacity="1" stroke-width="1px" fill-rule="nonzero" version="1.1" stroke-linecap="butt" stroke-miterlimit="4" stroke-linejoin="miter" d="M88.843,54.018C85.996,51.815,82.478,49.233,79.99,47.888C64.145,39.324,55.263,47.811,50.893,55.134C47.295,55.963,43.91,56.969,40.728,58.108C48.126,66.466,52.625,77.447,52.625,89.462C52.625,101.477,48.126,112.457,40.727,120.816C43.91,121.956,47.294,122.962,50.892,123.791C55.263,131.114,64.144,139.6,79.989,131.036C82.478,129.691,85.996,127.109,88.842,124.906C88.845,124.905,88.848,124.905,88.852,124.904C82.562,114.56,78.937,102.426,78.937,89.462C78.937,76.498,82.562,64.364,88.852,54.02C88.849,54.02,88.846,54.019,88.843,54.018ZM88.843,54.018"/>
  <path version="1.1" x="0px" stroke-miterlimit="4" stroke-opacity="1" stroke="none" y="0px" fill="#000000" fill-opacity="1" stroke-linecap="butt" xmlns:xlink="http://www.w3.org/1999/xlink" stroke-dasharray="none" xml:space="preserve" fill-rule="nonzero" stroke-width="1px" stroke-linejoin="miter" d="M163.137,68.412L146.16,72.656C143.563,77.699,142.087,83.409,142.087,89.462C142.087,95.514,143.563,101.225,146.16,106.268L163.137,110.512C163.137,110.512,178.924,105.249,178.924,89.462C178.924,73.675,163.137,68.412,163.137,68.412ZM163.137,68.412"/>
</g>
  <g id="Semibold-L" transform="matrix(1.0,0.0,0.0,1.0,1955.088041723056,1431.308061254306)">  <path version="1.1" stroke-opacity="1" stroke="none" stroke-linejoin="miter" stroke-miterlimit="4" fill="#000000" fill-rule="nonzero" stroke-linecap="butt" stroke-width="1px" xml:space="preserve" xmlns:xlink="http://www.w3.org/1999/xlink" stroke-dasharray="none" fill-opacity="1" y="0px" x="0px" d="M135.206,71.248C136.482,64.846,132.89,58.113,127.176,55.256C119.213,51.274,105.933,54.823,99.938,56.787C99.844,56.757,99.749,56.728,99.654,56.698C93.23,66.02,89.462,77.309,89.462,89.462C89.462,101.615,93.23,112.903,99.654,122.226C99.749,122.196,99.844,122.167,99.938,122.137C105.934,124.101,119.213,127.65,127.176,123.668C132.89,120.811,136.482,114.078,135.206,107.676C134.681,106.421,133.644,103.359,133.572,103.121C132.267,98.793,131.562,94.209,131.562,89.462C131.562,84.715,132.267,80.13,133.572,75.803C133.645,75.565,134.681,72.503,135.206,71.248ZM135.206,71.248"/>
  <path stroke-linejoin="miter" stroke-linecap="butt" fill="#000000" x="0px" xml:space="preserve" stroke-width="1px" fill-opacity="1" xmlns:xlink="http://www.w3.org/1999/xlink" version="1.1" y="0px" stroke-opacity="1" stroke="none" stroke-dasharray="none" fill-rule="nonzero" stroke-miterlimit="4" d="M30.403,62.573C9.134,73.483,0,89.462,0,89.462C0,89.462,9.134,105.44,30.403,116.351C37.593,109.624,42.1,100.061,42.1,89.462C42.1,78.862,37.593,69.3,30.403,62.573ZM21.049,89.462C18.143,89.462,15.787,87.106,15.787,84.199C15.787,81.293,18.143,78.937,21.049,78.937C23.956,78.937,26.312,81.293,26.312,84.199C26.312,87.106,23.956,89.462,21.049,89.462ZM21.049,89.462"/>
  <path stroke-linecap="butt" stroke-dasharray="none" y="0px" x="0px" fill="#000000" stroke-width="1px" version="1.1" stroke-opacity="1" fill-opacity="1" fill-rule="nonzero" xml:space="preserve" stroke="none" xmlns:xlink="http://www.w3.org/1999/xlink" stroke-linejoin="miter" stroke-miterlimit="4" d="M88.843,54.018C85.996,51.815,82.478,49.233,79.99,47.888C64.145,39.324,55.263,47.811,50.893,55.134C47.295,55.963,43.91,56.969,40.728,58.108C48.126,66.466,52.625,77.447,52.625,89.462C52.625,101.477,48.126,112.457,40.727,120.816C43.91,121.956,47.294,122.962,50.892,123.791C55.263,131.114,64.144,139.6,79.989,131.036C82.478,129.691,85.996,127.109,88.842,124.906C88.845,124.905,88.848,124.905,88.852,124.904C82.562,114.56,78.937,102.426,78.937,89.462C78.937,76.498,82.562,64.364,88.852,54.02C88.849,54.02,88.846,54.019,88.843,54.018ZM88.843,54.018"/>
  <path stroke-linejoin="miter" stroke-width="1px" stroke-dasharray="none" stroke-opacity="1" y="0px" fill-opacity="1" fill-rule="nonzero" xml:space="preserve" stroke-miterlimit="4" stroke="none" x="0px" stroke-linecap="butt" version="1.1" xmlns:xlink="http://www.w3.org/1999/xlink" fill="#000000" d="M163.137,68.412L146.16,72.656C143.563,77.699,142.087,83.409,142.087,89.462C142.087,95.514,143.563,101.225,146.16,106.268L163.137,110.512C163.137,110.512,178.924,105.249,178.924,89.462C178.924,73.675,163.137,68.412,163.137,68.412ZM163.137,68.412"/>
</g>
  <g id="Medium-L" transform="matrix(1.0,0.0,0.0,1.0,1658.378041723056,1431.308061254306)">  <path stroke-dasharray="none" stroke-width="1px" fill-opacity="1" xmlns:xlink="http://www.w3.org/1999/xlink" stroke-opacity="1" xml:space="preserve" fill="#000000" stroke-miterlimit="4" version="1.1" stroke-linejoin="miter" y="0px" stroke="none" fill-rule="nonzero" x="0px" stroke-linecap="butt" d="M135.206,71.248C136.482,64.846,132.89,58.113,127.176,55.256C119.213,51.274,105.933,54.823,99.938,56.787C99.844,56.757,99.749,56.728,99.654,56.698C93.23,66.02,89.462,77.309,89.462,89.462C89.462,101.615,93.23,112.903,99.654,122.226C99.749,122.196,99.844,122.167,99.938,122.137C105.934,124.101,119.213,127.65,127.176,123.668C132.89,120.811,136.482,114.078,135.206,107.676C134.681,106.421,133.644,103.359,133.572,103.121C132.267,98.793,131.562,94.209,131.562,89.462C131.562,84.715,132.267,80.13,133.572,75.803C133.645,75.565,134.681,72.503,135.206,71.248ZM135.206,71.248"/>
  <path fill="#000000" fill-opacity="1" xmlns:xlink="http://www.w3.org/1999/xlink" x="0px" version="1.1" y="0px" stroke-linecap="butt" xml:space="preserve" stroke-width="1px" fill-rule="nonzero" stroke="none" stroke-linejoin="miter" stroke-miterlimit="4" stroke-opacity="1" stroke-dasharray="none" d="M30.403,62.573C9.134,73.483,0,89.462,0,89.462C0,89.462,9.134,105.44,30.403,116.351C37.593,109.624,42.1,100.061,42.1,89.462C42.1,78.862,37.593,69.3,30.403,62.573ZM21.049,89.462C18.143,89.462,15.787,87.106,15.787,84.199C15.787,81.293,18.143,78.937,21.049,78.937C23.956,78.937,26.312,81.293,26.312,84.199C26.312,87.106,23.956,89.462,21.049,89.462ZM21.049,89.462"/>
  <path stroke-miterlimit="4" stroke-opacity="1" x="0px" fill="#000000" stroke="none" fill-opacity="1" stroke-dasharray="none" fill-rule="nonzero" version="1.1" stroke-linejoin="miter" stroke-linecap="butt" xmlns:xlink="http://www.w3.org/1999/xlink" y="0px" stroke-width="1px" xml:space="preserve" d="M88.843,54.018C85.996,51.815,82.478,49.233,79.99,47.888C64.145,39.324,55.263,47.811,50.893,55.134C47.295,55.963,43.91,56.969,40.728,58.108C48.126,66.466,52.625,77.447,52.625,89.462C52.625,101.477,48.126,112.457,40.727,120.816C43.91,121.956,47.294,122.962,50.892,123.791C55.263,131.114,64.144,139.6,79.989,131.036C82.478,129.691,85.996,127.109,88.842,124.906C88.845,124.905,88.848,124.905,88.852,124.904C82.562,114.56,78.937,102.426,78.937,89.462C78.937,76.498,82.562,64.364,88.852,54.02C88.849,54.02,88.846,54.019,88.843,54.018ZM88.843,54.018"/>
  <path stroke-dasharray="none" version="1.1" stroke-width="1px" xml:space="preserve" fill-rule="nonzero" stroke-linecap="butt" fill-opacity="1" stroke="none" fill="#000000" stroke-linejoin="miter" y="0px" stroke-miterlimit="4" x="0px" stroke-opacity="1" xmlns:xlink="http://www.w3.org/1999/xlink" d="M163.137,68.412L146.16,72.656C143.563,77.699,142.087,83.409,142.087,89.462C142.087,95.514,143.563,101.225,146.16,106.268L163.137,110.512C163.137,110.512,178.924,105.249,178.924,89.462C178.924,73.675,163.137,68.412,163.137,68.412ZM163.137,68.412"/>
</g>
  <g id="Regular-L" transform="matrix(1.0,0.0,0.0,1.0,1361.668041723056,1431.308061254306)">  <path stroke-dasharray="none" stroke-opacity="1" x="0px" fill-opacity="1" stroke-linecap="butt" version="1.1" y="0px" stroke="none" xml:space="preserve" stroke-width="1px" fill="#000000" stroke-linejoin="miter" stroke-miterlimit="4" xmlns:xlink="http://www.w3.org/1999/xlink" fill-rule="nonzero" d="M135.206,71.248C136.482,64.846,132.89,58.113,127.176,55.256C119.213,51.274,105.933,54.823,99.938,56.787C99.844,56.757,99.749,56.728,99.654,56.698C93.23,66.02,89.462,77.309,89.462,89.462C89.462,101.615,93.23,112.903,99.654,122.226C99.749,122.196,99.844,122.167,99.938,122.137C105.934,124.101,119.213,127.65,127.176,123.668C132.89,120.811,136.482,114.078,135.206,107.676C134.681,106.421,133.644,103.359,133.572,103.121C132.267,98.793,131.562,94.209,131.562,89.462C131.562,84.715,132.267,80.13,133.572,75.803C133.645,75.565,134.681,72.503,135.206,71.248ZM135.206,71.248"/>
  <path fill-opacity="1" version="1.1" y="0px" x="0px" xmlns:xlink="http://www.w3.org/1999/xlink" stroke-linecap="butt" xml:space="preserve" stroke-width="1px" stroke-dasharray="none" fill-rule="nonzero" stroke-opacity="1" fill="#000000" stroke="none" stroke-miterlimit="4" stroke-linejoin="miter" d="M30.403,62.573C9.134,73.483,0,89.462,0,89.462C0,89.462,9.134,105.44,30.403,116.351C37.593,109.624,42.1,100.061,42.1,89.462C42.1,78.862,37.593,69.3,30.403,62.573ZM21.049,89.462C18.143,89.462,15.787,87.106,15.787,84.199C15.787,81.293,18.143,78.937,21.049,78.937C23.956,78.937,26.312,81.293,26.312,84.199C26.312,87.106,23.956,89.462,21.049,89.462ZM21.049,89.462"/>
  <path stroke-width="1px" fill-opacity="1" fill-rule="nonzero" version="1.1" xml:space="preserve" stroke-miterlimit="4" stroke="none" y="0px" fill="#000000" stroke-opacity="1" x="0px" stroke-linecap="butt" xmlns:xlink="http://www.w3.org/1999/xlink" stroke-dasharray="none" stroke-linejoin="miter" d="M88.843,54.018C85.996,51.815,82.478,49.233,79.99,47.888C64.145,39.324,55.263,47.811,50.893,55.134C47.295,55.963,43.91,56.969,40.728,58.108C48.126,66.466,52.625,77.447,52.625,89.462C52.625,101.477,48.126,112.457,40.727,120.816C43.91,121.956,47.294,122.962,50.892,123.791C55.263,131.114,64.144,139.6,79.989,131.036C82.478,129.691,85.996,127.109,88.842,124.906C88.845,124.905,88.848,124.905,88.852,124.904C82.562,114.56,78.937,102.426,78.937,89.462C78.937,76.498,82.562,64.364,88.852,54.02C88.849,54.02,88.846,54.019,88.843,54.018ZM88.843,54.018"/>
  <path stroke-opacity="1" y="0px" version="1.1" stroke-width="1px" fill="#000000" stroke="none" xmlns:xlink="http://www.w3.org/1999/xlink" fill-rule="nonzero" stroke-linejoin="miter" xml:space="preserve" stroke-linecap="butt" stroke-dasharray="none" stroke-miterlimit="4" fill-opacity="1" x="0px" d="M163.137,68.412L146.16,72.656C143.563,77.699,142.087,83.409,142.087,89.462C142.087,95.514,143.563,101.225,146.16,106.268L163.137,110.512C163.137,110.512,178.924,105.249,178.924,89.462C178.924,73.675,163.137,68.412,163.137,68.412ZM163.137,68.412"/>
</g>
  <g id="Light-L" transform="matrix(1.0,0.0,0.0,1.0,1064.958041723056,1431.308061254306)">  <path xml:space="preserve" x="0px" stroke-opacity="1" fill-opacity="1" version="1.1" stroke-linecap="butt" stroke-miterlimit="4" fill="#000000" stroke="none" stroke-linejoin="miter" xmlns:xlink="http://www.w3.org/1999/xlink" stroke-dasharray="none" y="0px" stroke-width="1px" fill-rule="nonzero" d="M135.206,71.248C136.482,64.846,132.89,58.113,127.176,55.256C119.213,51.274,105.933,54.823,99.938,56.787C99.844,56.757,99.749,56.728,99.654,56.698C93.23,66.02,89.462,77.309,89.462,89.462C89.462,101.615,93.23,112.903,99.654,122.226C99.749,122.196,99.844,122.167,99.938,122.137C105.934,124.101,119.213,127.65,127.176,123.668C132.89,120.811,136.482,114.078,135.206,107.676C134.681,106.421,133.644,103.359,133.572,103.121C132.267,98.793,131.562,94.209,131.562,89.462C131.562,84.715,132.267,80.13,133.572,75.803C133.645,75.565,134.681,72.503,135.206,71.248ZM135.206,71.248"/>
  <path stroke="none" stroke-linejoin="miter" xmlns:xlink="http://www.w3.org/1999/xlink" version="1.1" fill="#000000" stroke-dasharray="none" x="0px" xml:space="preserve" y="0px" stroke-opacity="1" stroke-width="1px" stroke-linecap="butt" fill-opacity="1" stroke-miterlimit="4" fill-rule="nonzero" d="M30.403,62.573C9.134,73.483,0,89.462,0,89.462C0,89.462,9.134,105.44,30.403,116.351C37.593,109.624,42.1,100.061,42.1,89.462C42.1,78.862,37.593,69.3,30.403,62.573ZM21.049,89.462C18.143,89.462,15.787,87.106,15.787,84.199C15.787,81.293,18.143,78.937,21.049,78.937C23.956,78.937,26.312,81.293,26.312,84.199C26.312,87.106,23.956,89.462,21.049,89.462ZM21.049,89.462"/>
  <path version="1.1" stroke="none" fill-rule="nonzero" x="0px" xmlns:xlink="http://www.w3.org/1999/xlink" stroke-linecap="butt" stroke-dasharray="none" stroke-linejoin="miter" y="0px" xml:space="preserve" fill="#000000" stroke-miterlimit="4" stroke-opacity="1" stroke-width="1px" fill-opacity="1" d="M88.843,54.018C85.996,51.815,82.478,49.233,79.99,47.888C64.145,39.324,55.263,47.811,50.893,55.134C47.295,55.963,43.91,56.969,40.728,58.108C48.126,66.466,52.625,77.447,52.625,89.462C52.625,101.477,48.126,112.457,40.727,120.816C43.91,121.956,47.294,122.962,50.892,123.791C55.263,131.114,64.144,139.6,79.989,131.036C82.478,129.691,85.996,127.109,88.842,124.906C88.845,124.905,88.848,124.905,88.852,124.904C82.562,114.56,78.937,102.426,78.937,89.462C78.937,76.498,82.562,64.364,88.852,54.02C88.849,54.02,88.846,54.019,88.843,54.018ZM88.843,54.018"/>
  <path stroke="none" fill-rule="nonzero" fill="#000000" stroke-width="1px" stroke-dasharray="none" stroke-linecap="butt" x="0px" y="0px" xmlns:xlink="http://www.w3.org/1999/xlink" stroke-miterlimit="4" stroke-opacity="1" stroke-linejoin="miter" xml:space="preserve" version="1.1" fill-opacity="1" d="M163.137,68.412L146.16,72.656C143.563,77.699,142.087,83.409,142.087,89.462C142.087,95.514,143.563,101.225,146.16,106.268L163.137,110.512C163.137,110.512,178.924,105.249,178.924,89.462C178.924,73.675,163.137,68.412,163.137,68.412ZM163.137,68.412"/>
</g>
  <g id="Thin-L" transform="matrix(1.0,0.0,0.0,1.0,768.2480417230561,1431.308061254306)">  <path stroke-dasharray="none" stroke="none" fill="#000000" stroke-width="1px" fill-rule="nonzero" xml:space="preserve" stroke-opacity="1" x="0px" stroke-linecap="butt" version="1.1" stroke-miterlimit="4" xmlns:xlink="http://www.w3.org/1999/xlink" fill-opacity="1" stroke-linejoin="miter" y="0px" d="M135.206,71.248C136.482,64.846,132.89,58.113,127.176,55.256C119.213,51.274,105.933,54.823,99.938,56.787C99.844,56.757,99.749,56.728,99.654,56.698C93.23,66.02,89.462,77.309,89.462,89.462C89.462,101.615,93.23,112.903,99.654,122.226C99.749,122.196,99.844,122.167,99.938,122.137C105.934,124.101,119.213,127.65,127.176,123.668C132.89,120.811,136.482,114.078,135.206,107.676C134.681,106.421,133.644,103.359,133.572,103.121C132.267,98.793,131.562,94.209,131.562,89.462C131.562,84.715,132.267,80.13,133.572,75.803C133.645,75.565,134.681,72.503,135.206,71.248ZM135.206,71.248"/>
  <path fill-opacity="1" stroke-miterlimit="4" xml:space="preserve" x="0px" y="0px" stroke-width="1px" stroke-opacity="1" stroke="none" stroke-dasharray="none" xmlns:xlink="http://www.w3.org/1999/xlink" fill="#000000" fill-rule="nonzero" version="1.1" stroke-linejoin="miter" stroke-linecap="butt" d="M30.403,62.573C9.134,73.483,0,89.462,0,89.462C0,89.462,9.134,105.44,30.403,116.351C37.593,109.624,42.1,100.061,42.1,89.462C42.1,78.862,37.593,69.3,30.403,62.573ZM21.049,89.462C18.143,89.462,15.787,87.106,15.787,84.199C15.787,81.293,18.143,78.937,21.049,78.937C23.956,78.937,26.312,81.293,26.312,84.199C26.312,87.106,23.956,89.462,21.049,89.462ZM21.049,89.462"/>
  <path stroke-opacity="1" stroke-dasharray="none" stroke-width="1px" stroke-miterlimit="4" y="0px" fill-opacity="1" fill="#000000" x="0px" stroke="none" stroke-linecap="butt" version="1.1" fill-rule="nonzero" stroke-linejoin="miter" xml:space="preserve" xmlns:xlink="http://www.w3.org/1999/xlink" d="M88.843,54.018C85.996,51.815,82.478,49.233,79.99,47.888C64.145,39.324,55.263,47.811,50.893,55.134C47.295,55.963,43.91,56.969,40.728,58.108C48.126,66.466,52.625,77.447,52.625,89.462C52.625,101.477,48.126,112.457,40.727,120.816C43.91,121.956,47.294,122.962,50.892,123.791C55.263,131.114,64.144,139.6,79.989,131.036C82.478,129.691,85.996,127.109,88.842,124.906C88.845,124.905,88.848,124.905,88.852,124.904C82.562,114.56,78.937,102.426,78.937,89.462C78.937,76.498,82.562,64.364,88.852,54.02C88.849,54.02,88.846,54.019,88.843,54.018ZM88.843,54.018"/>
  <path y="0px" fill="#000000" x="0px" fill-rule="nonzero" xmlns:xlink="http://www.w3.org/1999/xlink" version="1.1" stroke-linecap="butt" stroke-opacity="1" stroke-dasharray="none" fill-opacity="1" xml:space="preserve" stroke="none" stroke-width="1px" stroke-miterlimit="4" stroke-linejoin="miter" d="M163.137,68.412L146.16,72.656C143.563,77.699,142.087,83.409,142.087,89.462C142.087,95.514,143.563,101.225,146.16,106.268L163.137,110.512C163.137,110.512,178.924,105.249,178.924,89.462C178.924,73.675,163.137,68.412,163.137,68.412ZM163.137,68.412"/>
</g>
  <g id="Ultralight-L" transform="matrix(1.0,0.0,0.0,1.0,471.5380417230561,1431.308061254306)">  <path stroke="none" y="0px" stroke-miterlimit="4" fill="#000000" version="1.1" stroke-dasharray="none" stroke-linejoin="miter" xmlns:xlink="http://www.w3.org/1999/xlink" fill-rule="nonzero" fill-opacity="1" stroke-linecap="butt" stroke-width="1px" x="0px" stroke-opacity="1" xml:space="preserve" d="M135.206,71.248C136.482,64.846,132.89,58.113,127.176,55.256C119.213,51.274,105.933,54.823,99.938,56.787C99.844,56.757,99.749,56.728,99.654,56.698C93.23,66.02,89.462,77.309,89.462,89.462C89.462,101.615,93.23,112.903,99.654,122.226C99.749,122.196,99.844,122.167,99.938,122.137C105.934,124.101,119.213,127.65,127.176,123.668C132.89,120.811,136.482,114.078,135.206,107.676C134.681,106.421,133.644,103.359,133.572,103.121C132.267,98.793,131.562,94.209,131.562,89.462C131.562,84.715,132.267,80.13,133.572,75.803C133.645,75.565,134.681,72.503,135.206,71.248ZM135.206,71.248"/>
  <path version="1.1" stroke-opacity="1" stroke-miterlimit="4" stroke="none" stroke-dasharray="none" x="0px" fill-opacity="1" y="0px" fill-rule="nonzero" xml:space="preserve" stroke-width="1px" stroke-linecap="butt" fill="#000000" xmlns:xlink="http://www.w3.org/1999/xlink" stroke-linejoin="miter" d="M30.403,62.573C9.134,73.483,0,89.462,0,89.462C0,89.462,9.134,105.44,30.403,116.351C37.593,109.624,42.1,100.061,42.1,89.462C42.1,78.862,37.593,69.3,30.403,62.573ZM21.049,89.462C18.143,89.462,15.787,87.106,15.787,84.199C15.787,81.293,18.143,78.937,21.049,78.937C23.956,78.937,26.312,81.293,26.312,84.199C26.312,87.106,23.956,89.462,21.049,89.462ZM21.049,89.462"/>
  <path xml:space="preserve" fill-rule="nonzero" fill-opacity="1" stroke-dasharray="none" xmlns:xlink="http://www.w3.org/1999/xlink" stroke-linejoin="miter" stroke-opacity="1" x="0px" stroke-width="1px" y="0px" fill="#000000" stroke-miterlimit="4" stroke="none" stroke-linecap="butt" version="1.1" d="M88.843,54.018C85.996,51.815,82.478,49.233,79.99,47.888C64.145,39.324,55.263,47.811,50.893,55.134C47.295,55.963,43.91,56.969,40.728,58.108C48.126,66.466,52.625,77.447,52.625,89.462C52.625,101.477,48.126,112.457,40.727,120.816C43.91,121.956,47.294,122.962,50.892,123.791C55.263,131.114,64.144,139.6,79.989,131.036C82.478,129.691,85.996,127.109,88.842,124.906C88.845,124.905,88.848,124.905,88.852,124.904C82.562,114.56,78.937,102.426,78.937,89.462C78.937,76.498,82.562,64.364,88.852,54.02C88.849,54.02,88.846,54.019,88.843,54.018ZM88.843,54.018"/>
  <path xmlns:xlink="http://www.w3.org/1999/xlink" stroke-width="1px" x="0px" stroke="none" fill="#000000" xml:space="preserve" stroke-dasharray="none" fill-opacity="1" version="1.1" stroke-linecap="butt" stroke-opacity="1" stroke-miterlimit="4" fill-rule="nonzero" stroke-linejoin="miter" y="0px" d="M163.137,68.412L146.16,72.656C143.563,77.699,142.087,83.409,142.087,89.462C142.087,95.514,143.563,101.225,146.16,106.268L163.137,110.512C163.137,110.512,178.924,105.249,178.924,89.462C178.924,73.675,163.137,68.412,163.137,68.412ZM163.137,68.412"/>
</g>
  <g id="Black-M" transform="matrix(1.0,0.0,0.0,1.0,2865.329644746555,1021.4196642778052)">  <path xmlns:xlink="http://www.w3.org/1999/xlink" stroke-width="1px" stroke-linejoin="miter" stroke-dasharray="none" y="0px" fill-opacity="1" stroke-linecap="butt" fill="#000000" version="1.1" x="0px" stroke="none" xml:space="preserve" stroke-opacity="1" stroke-miterlimit="4" fill-rule="nonzero" d="M104.811,55.231C105.8,50.268,103.015,45.049,98.586,42.834C92.413,39.748,82.119,42.498,77.472,44.021C77.398,43.997,77.325,43.975,77.251,43.952C72.271,51.179,69.35,59.929,69.35,69.35C69.35,78.771,72.271,87.522,77.251,94.749C77.324,94.726,77.398,94.703,77.472,94.68C82.119,96.202,92.413,98.953,98.586,95.867C103.015,93.652,105.8,88.432,104.811,83.47C104.404,82.497,103.6,80.123,103.545,79.939C102.532,76.584,101.986,73.03,101.986,69.35C101.986,65.671,102.532,62.116,103.545,58.762C103.6,58.578,104.404,56.204,104.811,55.231ZM104.811,55.231"/>
  <path stroke-linejoin="miter" xml:space="preserve" stroke-opacity="1" stroke="none" stroke-width="1px" stroke-linecap="butt" version="1.1" fill="#000000" fill-opacity="1" xmlns:xlink="http://www.w3.org/1999/xlink" stroke-miterlimit="4" x="0px" y="0px" fill-rule="nonzero" stroke-dasharray="none" d="M23.569,48.506C7.081,56.964,0,69.35,0,69.35C0,69.35,7.081,81.737,23.569,90.194C29.142,84.979,32.635,77.567,32.635,69.35C32.635,61.133,29.142,53.721,23.569,48.506ZM16.317,69.35C14.064,69.35,12.238,67.524,12.238,65.271C12.238,63.018,14.064,61.191,16.317,61.191C18.57,61.191,20.397,63.018,20.397,65.271C20.397,67.524,18.57,69.35,16.317,69.35ZM16.317,69.35"/>
  <path stroke-linejoin="miter" stroke-dasharray="none" y="0px" stroke-miterlimit="4" stroke-opacity="1" stroke-width="1px" version="1.1" stroke-linecap="butt" xml:space="preserve" fill="#000000" x="0px" fill-opacity="1" fill-rule="nonzero" xmlns:xlink="http://www.w3.org/1999/xlink" stroke="none" d="M68.87,41.875C66.664,40.167,63.937,38.165,62.007,37.123C49.725,30.484,42.839,37.062,39.452,42.739C36.663,43.382,34.039,44.162,31.572,45.045C37.307,51.524,40.794,60.037,40.794,69.35C40.794,78.664,37.307,87.176,31.572,93.656C34.038,94.539,36.662,95.319,39.451,95.962C42.839,101.639,49.724,108.217,62.007,101.578C63.936,100.536,66.664,98.534,68.87,96.826C68.872,96.826,68.875,96.825,68.877,96.825C64.002,88.806,61.191,79.4,61.191,69.35C61.191,59.301,64.002,49.894,68.878,41.876C68.875,41.876,68.873,41.875,68.87,41.875ZM68.87,41.875"/>
  <path fill="#000000" stroke-opacity="1" xmlns:xlink="http://www.w3.org/1999/xlink" xml:space="preserve" stroke-width="1px" fill-rule="nonzero" stroke-linejoin="miter" fill-opacity="1" stroke-dasharray="none" stroke="none" stroke-linecap="butt" version="1.1" x="0px" y="0px" stroke-miterlimit="4" d="M126.462,53.033L113.303,56.322C111.289,60.232,110.145,64.658,110.145,69.35C110.145,74.042,111.289,78.469,113.303,82.378L126.462,85.668C126.462,85.668,138.701,81.589,138.701,69.35C138.701,57.112,126.462,53.033,126.462,53.033ZM126.462,53.033"/>
</g>
  <g id="Heavy-M" transform="matrix(1.0,0.0,0.0,1.0,2568.619644746555,1021.4196642778052)">  <path xml:space="preserve" stroke-linejoin="miter" fill-opacity="1" stroke-width="1px" x="0px" y="0px" fill-rule="nonzero" xmlns:xlink="http://www.w3.org/1999/xlink" stroke-linecap="butt" stroke-dasharray="none" stroke="none" fill="#000000" version="1.1" stroke-miterlimit="4" stroke-opacity="1" d="M104.811,55.231C105.8,50.268,103.015,45.049,98.586,42.834C92.413,39.748,82.119,42.498,77.472,44.021C77.398,43.997,77.325,43.975,77.251,43.952C72.271,51.179,69.35,59.929,69.35,69.35C69.35,78.771,72.271,87.522,77.251,94.749C77.324,94.726,77.398,94.703,77.472,94.68C82.119,96.202,92.413,98.953,98.586,95.867C103.015,93.652,105.8,88.432,104.811,83.47C104.404,82.497,103.6,80.123,103.545,79.939C102.532,76.584,101.986,73.03,101.986,69.35C101.986,65.671,102.532,62.116,103.545,58.762C103.6,58.578,104.404,56.204,104.811,55.231ZM104.811,55.231"/>
  <path version="1.1" x="0px" stroke="none" y="0px" stroke-width="1px" stroke-dasharray="none" fill-opacity="1" stroke-miterlimit="4" stroke-linejoin="miter" stroke-linecap="butt" xmlns:xlink="http://www.w3.org/1999/xlink" stroke-opacity="1" fill-rule="nonzero" fill="#000000" xml:space="preserve" d="M23.569,48.506C7.081,56.964,0,69.35,0,69.35C0,69.35,7.081,81.737,23.569,90.194C29.142,84.979,32.635,77.567,32.635,69.35C32.635,61.133,29.142,53.721,23.569,48.506ZM16.317,69.35C14.064,69.35,12.238,67.524,12.238,65.271C12.238,63.018,14.064,61.191,16.317,61.191C18.57,61.191,20.397,63.018,20.397,65.271C20.397,67.524,18.57,69.35,16.317,69.35ZM16.317,69.35"/>
  <path fill-opacity="1" stroke-dasharray="none" stroke-miterlimit="4" stroke-opacity="1" fill-rule="nonzero" xmlns:xlink="http://www.w3.org/1999/xlink" fill="#000000" stroke="none" x="0px" y="0px" xml:space="preserve" stroke-width="1px" version="1.1" stroke-linejoin="miter" stroke-linecap="butt" d="M68.87,41.875C66.664,40.167,63.937,38.165,62.007,37.123C49.725,30.484,42.839,37.062,39.452,42.739C36.663,43.382,34.039,44.162,31.572,45.045C37.307,51.524,40.794,60.037,40.794,69.35C40.794,78.664,37.307,87.176,31.572,93.656C34.038,94.539,36.662,95.319,39.451,95.962C42.839,101.639,49.724,108.217,62.007,101.578C63.936,100.536,66.664,98.534,68.87,96.826C68.872,96.826,68.875,96.825,68.877,96.825C64.002,88.806,61.191,79.4,61.191,69.35C61.191,59.301,64.002,49.894,68.878,41.876C68.875,41.876,68.873,41.875,68.87,41.875ZM68.87,41.875"/>
  <path x="0px" stroke-opacity="1" stroke-linejoin="miter" fill-opacity="1" y="0px" stroke-linecap="butt" fill-rule="nonzero" version="1.1" fill="#000000" stroke-width="1px" stroke-miterlimit="4" xml:space="preserve" stroke-dasharray="none" stroke="none" xmlns:xlink="http://www.w3.org/1999/xlink" d="M126.462,53.033L113.303,56.322C111.289,60.232,110.145,64.658,110.145,69.35C110.145,74.042,111.289,78.469,113.303,82.378L126.462,85.668C126.462,85.668,138.701,81.589,138.701,69.35C138.701,57.112,126.462,53.033,126.462,53.033ZM126.462,53.033"/>
</g>
  <g id="Bold-M" transform="matrix(1.0,0.0,0.0,1.0,2271.909644746555,1021.4196642778052)">  <path stroke-dasharray="none" fill-rule="nonzero" xmlns:xlink="http://www.w3.org/1999/xlink" fill="#000000" x="0px" xml:space="preserve" y="0px" stroke="none" stroke-miterlimit="4" stroke-width="1px" fill-opacity="1" stroke-linejoin="miter" version="1.1" stroke-linecap="butt" stroke-opacity="1" d="M104.811,55.231C105.8,50.268,103.015,45.049,98.586,42.834C92.413,39.748,82.119,42.498,77.472,44.021C77.398,43.997,77.325,43.975,77.251,43.952C72.271,51.179,69.35,59.929,69.35,69.35C69.35,78.771,72.271,87.522,77.251,94.749C77.324,94.726,77.398,94.703,77.472,94.68C82.119,96.202,92.413,98.953,98.586,95.867C103.015,93.652,105.8,88.432,104.811,83.47C104.404,82.497,103.6,80.123,103.545,79.939C102.532,76.584,101.986,73.03,101.986,69.35C101.986,65.671,102.532,62.116,103.545,58.762C103.6,58.578,104.404,56.204,104.811,55.231ZM104.811,55.231"/>
  <path xml:space="preserve" stroke-width="1px" stroke="none" stroke-linecap="butt" stroke-miterlimit="4" stroke-dasharray="none" x="0px" version="1.1" stroke-opacity="1" fill-opacity="1" fill-rule="nonzero" stroke-linejoin="miter" fill="#000000" y="0px" xmlns:xlink="http://www.w3.org/1999/xlink" d="M23.569,48.506C7.081,56.964,0,69.35,0,69.35C0,69.35,7.081,81.737,23.569,90.194C29.142,84.979,32.635,77.567,32.635,69.35C32.635,61.133,29.142,53.721,23.569,48.506ZM16.317,69.35C14.064,69.35,12.238,67.524,12.238,65.271C12.238,63.018,14.064,61.191,16.317,61.191C18.57,61.191,20.397,63.018,20.397,65.271C20.397,67.524,18.57,69.35,16.317,69.35ZM16.317,69.35"/>
  <path xml:space="preserve" xmlns:xlink="http://www.w3.org/1999/xlink" stroke-opacity="1" stroke="none" fill="#000000" stroke-dasharray="none" y="0px" x="0px" fill-opacity="1" stroke-width="1px" fill-rule="nonzero" version="1.1" stroke-linecap="butt" stroke-miterlimit="4" stroke-linejoin="miter" d="M68.87,41.875C66.664,40.167,63.937,38.165,62.007,37.123C49.725,30.484,42.839,37.062,39.452,42.739C36.663,43.382,34.039,44.162,31.572,45.045C37.307,51.524,40.794,60.037,40.794,69.35C40.794,78.664,37.307,87.176,31.572,93.656C34.038,94.539,36.662,95.319,39.451,95.962C42.839,101.639,49.724,108.217,62.007,101.578C63.936,100.536,66.664,98.534,68.87,96.826C68.872,96.826,68.875,96.825,68.877,96.825C64.002,88.806,61.191,79.4,61.191,69.35C61.191,59.301,64.002,49.894,68.878,41.876C68.875,41.876,68.873,41.875,68.87,41.875ZM68.87,41.875"/>
  <path version="1.1" x="0px" stroke-miterlimit="4" stroke-opacity="1" stroke="none" y="0px" fill="#000000" fill-opacity="1" stroke-linecap="butt" xmlns:xlink="http://www.w3.org/1999/xlink" stroke-dasharray="none" xml:space="preserve" fill-rule="nonzero" stroke-width="1px" stroke-linejoin="miter" d="M126.462,53.033L113.303,56.322C111.289,60.232,110.145,64.658,110.145,69.35C110.145,74.042,111.289,78.469,113.303,82.378L126.462,85.668C126.462,85.668,138.701,81.589,138.701,69.35C138.701,57.112,126.462,53.033,126.462,53.033ZM126.462,53.033"/>
</g>
  <g id="Semibold-M" transform="matrix(1.0,0.0,0.0,1.0,1975.1996447465551,1021.4196642778052)">  <path version="1.1" stroke-opacity="1" stroke="none" stroke-linejoin="miter" stroke-miterlimit="4" fill="#000000" fill-rule="nonzero" stroke-linecap="butt" stroke-width="1px" xml:space="preserve" xmlns:xlink="http://www.w3.org/1999/xlink" stroke-dasharray="none" fill-opacity="1" y="0px" x="0px" d="M104.811,55.231C105.8,50.268,103.015,45.049,98.586,42.834C92.413,39.748,82.119,42.498,77.472,44.021C77.398,43.997,77.325,43.975,77.251,43.952C72.271,51.179,69.35,59.929,69.35,69.35C69.35,78.771,72.271,87.522,77.251,94.749C77.324,94.726,77.398,94.703,77.472,94.68C82.119,96.202,92.413,98.953,98.586,95.867C103.015,93.652,105.8,88.432,104.811,83.47C104.404,82.497,103.6,80.123,103.545,79.939C102.532,76.584,101.986,73.03,101.986,69.35C101.986,65.671,102.532,62.116,103.545,58.762C103.6,58.578,104.404,56.204,104.811,55.231ZM104.811,55.231"/>
  <path stroke-linejoin="miter" stroke-linecap="butt" fill="#000000" x="0px" xml:space="preserve" stroke-width="1px" fill-opacity="1" xmlns:xlink="http://www.w3.org/1999/xlink" version="1.1" y="0px" stroke-opacity="1" stroke="none" stroke-dasharray="none" fill-rule="nonzero" stroke-miterlimit="4" d="M23.569,48.506C7.081,56.964,0,69.35,0,69.35C0,69.35,7.081,81.737,23.569,90.194C29.142,84.979,32.635,77.567,32.635,69.35C32.635,61.133,29.142,53.721,23.569,48.506ZM16.317,69.35C14.064,69.35,12.238,67.524,12.238,65.271C12.238,63.018,14.064,61.191,16.317,61.191C18.57,61.191,20.397,63.018,20.397,65.271C20.397,67.524,18.57,69.35,16.317,69.35ZM16.317,69.35"/>
  <path stroke-linecap="butt" stroke-dasharray="none" y="0px" x="0px" fill="#000000" stroke-width="1px" version="1.1" stroke-opacity="1" fill-opacity="1" fill-rule="nonzero" xml:space="preserve" stroke="none" xmlns:xlink="http://www.w3.org/1999/xlink" stroke-linejoin="miter" stroke-miterlimit="4" d="M68.87,41.875C66.664,40.167,63.937,38.165,62.007,37.123C49.725,30.484,42.839,37.062,39.452,42.739C36.663,43.382,34.039,44.162,31.572,45.045C37.307,51.524,40.794,60.037,40.794,69.35C40.794,78.664,37.307,87.176,31.572,93.656C34.038,94.539,36.662,95.319,39.451,95.962C42.839,101.639,49.724,108.217,62.007,101.578C63.936,100.536,66.664,98.534,68.87,96.826C68.872,96.826,68.875,96.825,68.877,96.825C64.002,88.806,61.191,79.4,61.191,69.35C61.191,59.301,64.002,49.894,68.878,41.876C68.875,41.876,68.873,41.875,68.87,41.875ZM68.87,41.875"/>
  <path stroke-linejoin="miter" stroke-width="1px" stroke-dasharray="none" stroke-opacity="1" y="0px" fill-opacity="1" fill-rule="nonzero" xml:space="preserve" stroke-miterlimit="4" stroke="none" x="0px" stroke-linecap="butt" version="1.1" xmlns:xlink="http://www.w3.org/1999/xlink" fill="#000000" d="M126.462,53.033L113.303,56.322C111.289,60.232,110.145,64.658,110.145,69.35C110.145,74.042,111.289,78.469,113.303,82.378L126.462,85.668C126.462,85.668,138.701,81.589,138.701,69.35C138.701,57.112,126.462,53.033,126.462,53.033ZM126.462,53.033"/>
</g>
  <g id="Medium-M" transform="matrix(1.0,0.0,0.0,1.0,1678.489644746555,1021.4196642778052)">  <path stroke-dasharray="none" stroke-width="1px" fill-opacity="1" xmlns:xlink="http://www.w3.org/1999/xlink" stroke-opacity="1" xml:space="preserve" fill="#000000" stroke-miterlimit="4" version="1.1" stroke-linejoin="miter" y="0px" stroke="none" fill-rule="nonzero" x="0px" stroke-linecap="butt" d="M104.811,55.231C105.8,50.268,103.015,45.049,98.586,42.834C92.413,39.748,82.119,42.498,77.472,44.021C77.398,43.997,77.325,43.975,77.251,43.952C72.271,51.179,69.35,59.929,69.35,69.35C69.35,78.771,72.271,87.522,77.251,94.749C77.324,94.726,77.398,94.703,77.472,94.68C82.119,96.202,92.413,98.953,98.586,95.867C103.015,93.652,105.8,88.432,104.811,83.47C104.404,82.497,103.6,80.123,103.545,79.939C102.532,76.584,101.986,73.03,101.986,69.35C101.986,65.671,102.532,62.116,103.545,58.762C103.6,58.578,104.404,56.204,104.811,55.231ZM104.811,55.231"/>
  <path fill="#000000" fill-opacity="1" xmlns:xlink="http://www.w3.org/1999/xlink" x="0px" version="1.1" y="0px" stroke-linecap="butt" xml:space="preserve" stroke-width="1px" fill-rule="nonzero" stroke="none" stroke-linejoin="miter" stroke-miterlimit="4" stroke-opacity="1" stroke-dasharray="none" d="M23.569,48.506C7.081,56.964,0,69.35,0,69.35C0,69.35,7.081,81.737,23.569,90.194C29.142,84.979,32.635,77.567,32.635,69.35C32.635,61.133,29.142,53.721,23.569,48.506ZM16.317,69.35C14.064,69.35,12.238,67.524,12.238,65.271C12.238,63.018,14.064,61.191,16.317,61.191C18.57,61.191,20.397,63.018,20.397,65.271C20.397,67.524,18.57,69.35,16.317,69.35ZM16.317,69.35"/>
  <path stroke-miterlimit="4" stroke-opacity="1" x="0px" fill="#000000" stroke="none" fill-opacity="1" stroke-dasharray="none" fill-rule="nonzero" version="1.1" stroke-linejoin="miter" stroke-linecap="butt" xmlns:xlink="http://www.w3.org/1999/xlink" y="0px" stroke-width="1px" xml:space="preserve" d="M68.87,41.875C66.664,40.167,63.937,38.165,62.007,37.123C49.725,30.484,42.839,37.062,39.452,42.739C36.663,43.382,34.039,44.162,31.572,45.045C37.307,51.524,40.794,60.037,40.794,69.35C40.794,78.664,37.307,87.176,31.572,93.656C34.038,94.539,36.662,95.319,39.451,95.962C42.839,101.639,49.724,108.217,62.007,101.578C63.936,100.536,66.664,98.534,68.87,96.826C68.872,96.826,68.875,96.825,68.877,96.825C64.002,88.806,61.191,79.4,61.191,69.35C61.191,59.301,64.002,49.894,68.878,41.876C68.875,41.876,68.873,41.875,68.87,41.875ZM68.87,41.875"/>
  <path stroke-dasharray="none" version="1.1" stroke-width="1px" xml:space="preserve" fill-rule="nonzero" stroke-linecap="butt" fill-opacity="1" stroke="none" fill="#000000" stroke-linejoin="miter" y="0px" stroke-miterlimit="4" x="0px" stroke-opacity="1" xmlns:xlink="http://www.w3.org/1999/xlink" d="M126.462,53.033L113.303,56.322C111.289,60.232,110.145,64.658,110.145,69.35C110.145,74.042,111.289,78.469,113.303,82.378L126.462,85.668C126.462,85.668,138.701,81.589,138.701,69.35C138.701,57.112,126.462,53.033,126.462,53.033ZM126.462,53.033"/>
</g>
  <g id="Regular-M" transform="matrix(1.0,0.0,0.0,1.0,1381.779644746555,1021.4196642778052)">  <path stroke-dasharray="none" stroke-opacity="1" x="0px" fill-opacity="1" stroke-linecap="butt" version="1.1" y="0px" stroke="none" xml:space="preserve" stroke-width="1px" fill="#000000" stroke-linejoin="miter" stroke-miterlimit="4" xmlns:xlink="http://www.w3.org/1999/xlink" fill-rule="nonzero" d="M104.811,55.231C105.8,50.268,103.015,45.049,98.586,42.834C92.413,39.748,82.119,42.498,77.472,44.021C77.398,43.997,77.325,43.975,77.251,43.952C72.271,51.179,69.35,59.929,69.35,69.35C69.35,78.771,72.271,87.522,77.251,94.749C77.324,94.726,77.398,94.703,77.472,94.68C82.119,96.202,92.413,98.953,98.586,95.867C103.015,93.652,105.8,88.432,104.811,83.47C104.404,82.497,103.6,80.123,103.545,79.939C102.532,76.584,101.986,73.03,101.986,69.35C101.986,65.671,102.532,62.116,103.545,58.762C103.6,58.578,104.404,56.204,104.811,55.231ZM104.811,55.231"/>
  <path fill-opacity="1" version="1.1" y="0px" x="0px" xmlns:xlink="http://www.w3.org/1999/xlink" stroke-linecap="butt" xml:space="preserve" stroke-width="1px" stroke-dasharray="none" fill-rule="nonzero" stroke-opacity="1" fill="#000000" stroke="none" stroke-miterlimit="4" stroke-linejoin="miter" d="M23.569,48.506C7.081,56.964,0,69.35,0,69.35C0,69.35,7.081,81.737,23.569,90.194C29.142,84.979,32.635,77.567,32.635,69.35C32.635,61.133,29.142,53.721,23.569,48.506ZM16.317,69.35C14.064,69.35,12.238,67.524,12.238,65.271C12.238,63.018,14.064,61.191,16.317,61.191C18.57,61.191,20.397,63.018,20.397,65.271C20.397,67.524,18.57,69.35,16.317,69.35ZM16.317,69.35"/>
  <path stroke-width="1px" fill-opacity="1" fill-rule="nonzero" version="1.1" xml:space="preserve" stroke-miterlimit="4" stroke="none" y="0px" fill="#000000" stroke-opacity="1" x="0px" stroke-linecap="butt" xmlns:xlink="http://www.w3.org/1999/xlink" stroke-dasharray="none" stroke-linejoin="miter" d="M68.87,41.875C66.664,40.167,63.937,38.165,62.007,37.123C49.725,30.484,42.839,37.062,39.452,42.739C36.663,43.382,34.039,44.162,31.572,45.045C37.307,51.524,40.794,60.037,40.794,69.35C40.794,78.664,37.307,87.176,31.572,93.656C34.038,94.539,36.662,95.319,39.451,95.962C42.839,101.639,49.724,108.217,62.007,101.578C63.936,100.536,66.664,98.534,68.87,96.826C68.872,96.826,68.875,96.825,68.877,96.825C64.002,88.806,61.191,79.4,61.191,69.35C61.191,59.301,64.002,49.894,68.878,41.876C68.875,41.876,68.873,41.875,68.87,41.875ZM68.87,41.875"/>
  <path stroke-opacity="1" y="0px" version="1.1" stroke-width="1px" fill="#000000" stroke="none" xmlns:xlink="http://www.w3.org/1999/xlink" fill-rule="nonzero" stroke-linejoin="miter" xml:space="preserve" stroke-linecap="butt" stroke-dasharray="none" stroke-miterlimit="4" fill-opacity="1" x="0px" d="M126.462,53.033L113.303,56.322C111.289,60.232,110.145,64.658,110.145,69.35C110.145,74.042,111.289,78.469,113.303,82.378L126.462,85.668C126.462,85.668,138.701,81.589,138.701,69.35C138.701,57.112,126.462,53.033,126.462,53.033ZM126.462,53.033"/>
</g>
  <g id="Light-M" transform="matrix(1.0,0.0,0.0,1.0,1085.0696447465552,1021.4196642778052)">  <path xml:space="preserve" x="0px" stroke-opacity="1" fill-opacity="1" version="1.1" stroke-linecap="butt" stroke-miterlimit="4" fill="#000000" stroke="none" stroke-linejoin="miter" xmlns:xlink="http://www.w3.org/1999/xlink" stroke-dasharray="none" y="0px" stroke-width="1px" fill-rule="nonzero" d="M104.811,55.231C105.8,50.268,103.015,45.049,98.586,42.834C92.413,39.748,82.119,42.498,77.472,44.021C77.398,43.997,77.325,43.975,77.251,43.952C72.271,51.179,69.35,59.929,69.35,69.35C69.35,78.771,72.271,87.522,77.251,94.749C77.324,94.726,77.398,94.703,77.472,94.68C82.119,96.202,92.413,98.953,98.586,95.867C103.015,93.652,105.8,88.432,104.811,83.47C104.404,82.497,103.6,80.123,103.545,79.939C102.532,76.584,101.986,73.03,101.986,69.35C101.986,65.671,102.532,62.116,103.545,58.762C103.6,58.578,104.404,56.204,104.811,55.231ZM104.811,55.231"/>
  <path stroke="none" stroke-linejoin="miter" xmlns:xlink="http://www.w3.org/1999/xlink" version="1.1" fill="#000000" stroke-dasharray="none" x="0px" xml:space="preserve" y="0px" stroke-opacity="1" stroke-width="1px" stroke-linecap="butt" fill-opacity="1" stroke-miterlimit="4" fill-rule="nonzero" d="M23.569,48.506C7.081,56.964,0,69.35,0,69.35C0,69.35,7.081,81.737,23.569,90.194C29.142,84.979,32.635,77.567,32.635,69.35C32.635,61.133,29.142,53.721,23.569,48.506ZM16.317,69.35C14.064,69.35,12.238,67.524,12.238,65.271C12.238,63.018,14.064,61.191,16.317,61.191C18.57,61.191,20.397,63.018,20.397,65.271C20.397,67.524,18.57,69.35,16.317,69.35ZM16.317,69.35"/>
  <path version="1.1" stroke="none" fill-rule="nonzero" x="0px" xmlns:xlink="http://www.w3.org/1999/xlink" stroke-linecap="butt" stroke-dasharray="none" stroke-linejoin="miter" y="0px" xml:space="preserve" fill="#000000" stroke-miterlimit="4" stroke-opacity="1" stroke-width="1px" fill-opacity="1" d="M68.87,41.875C66.664,40.167,63.937,38.165,62.007,37.123C49.725,30.484,42.839,37.062,39.452,42.739C36.663,43.382,34.039,44.162,31.572,45.045C37.307,51.524,40.794,60.037,40.794,69.35C40.794,78.664,37.307,87.176,31.572,93.656C34.038,94.539,36.662,95.319,39.451,95.962C42.839,101.639,49.724,108.217,62.007,101.578C63.936,100.536,66.664,98.534,68.87,96.826C68.872,96.826,68.875,96.825,68.877,96.825C64.002,88.806,61.191,79.4,61.191,69.35C61.191,59.301,64.002,49.894,68.878,41.876C68.875,41.876,68.873,41.875,68.87,41.875ZM68.87,41.875"/>
  <path stroke="none" fill-rule="nonzero" fill="#000000" stroke-width="1px" stroke-dasharray="none" stroke-linecap="butt" x="0px" y="0px" xmlns:xlink="http://www.w3.org/1999/xlink" stroke-miterlimit="4" stroke-opacity="1" stroke-linejoin="miter" xml:space="preserve" version="1.1" fill-opacity="1" d="M126.462,53.033L113.303,56.322C111.289,60.232,110.145,64.658,110.145,69.35C110.145,74.042,111.289,78.469,113.303,82.378L126.462,85.668C126.462,85.668,138.701,81.589,138.701,69.35C138.701,57.112,126.462,53.033,126.462,53.033ZM126.462,53.033"/>
</g>
  <g id="Thin-M" transform="matrix(1.0,0.0,0.0,1.0,788.3596447465552,1021.4196642778052)">  <path stroke-dasharray="none" stroke="none" fill="#000000" stroke-width="1px" fill-rule="nonzero" xml:space="preserve" stroke-opacity="1" x="0px" stroke-linecap="butt" version="1.1" stroke-miterlimit="4" xmlns:xlink="http://www.w3.org/1999/xlink" fill-opacity="1" stroke-linejoin="miter" y="0px" d="M104.811,55.231C105.8,50.268,103.015,45.049,98.586,42.834C92.413,39.748,82.119,42.498,77.472,44.021C77.398,43.997,77.325,43.975,77.251,43.952C72.271,51.179,69.35,59.929,69.35,69.35C69.35,78.771,72.271,87.522,77.251,94.749C77.324,94.726,77.398,94.703,77.472,94.68C82.119,96.202,92.413,98.953,98.586,95.867C103.015,93.652,105.8,88.432,104.811,83.47C104.404,82.497,103.6,80.123,103.545,79.939C102.532,76.584,101.986,73.03,101.986,69.35C101.986,65.671,102.532,62.116,103.545,58.762C103.6,58.578,104.404,56.204,104.811,55.231ZM104.811,55.231"/>
  <path fill-opacity="1" stroke-miterlimit="4" xml:space="preserve" x="0px" y="0px" stroke-width="1px" stroke-opacity="1" stroke="none" stroke-dasharray="none" xmlns:xlink="http://www.w3.org/1999/xlink" fill="#000000" fill-rule="nonzero" version="1.1" stroke-linejoin="miter" stroke-linecap="butt" d="M23.569,48.506C7.081,56.964,0,69.35,0,69.35C0,69.35,7.081,81.737,23.569,90.194C29.142,84.979,32.635,77.567,32.635,69.35C32.635,61.133,29.142,53.721,23.569,48.506ZM16.317,69.35C14.064,69.35,12.238,67.524,12.238,65.271C12.238,63.018,14.064,61.191,16.317,61.191C18.57,61.191,20.397,63.018,20.397,65.271C20.397,67.524,18.57,69.35,16.317,69.35ZM16.317,69.35"/>
  <path stroke-opacity="1" stroke-dasharray="none" stroke-width="1px" stroke-miterlimit="4" y="0px" fill-opacity="1" fill="#000000" x="0px" stroke="none" stroke-linecap="butt" version="1.1" fill-rule="nonzero" stroke-linejoin="miter" xml:space="preserve" xmlns:xlink="http://www.w3.org/1999/xlink" d="M68.87,41.875C66.664,40.167,63.937,38.165,62.007,37.123C49.725,30.484,42.839,37.062,39.452,42.739C36.663,43.382,34.039,44.162,31.572,45.045C37.307,51.524,40.794,60.037,40.794,69.35C40.794,78.664,37.307,87.176,31.572,93.656C34.038,94.539,36.662,95.319,39.451,95.962C42.839,101.639,49.724,108.217,62.007,101.578C63.936,100.536,66.664,98.534,68.87,96.826C68.872,96.826,68.875,96.825,68.877,96.825C64.002,88.806,61.191,79.4,61.191,69.35C61.191,59.301,64.002,49.894,68.878,41.876C68.875,41.876,68.873,41.875,68.87,41.875ZM68.87,41.875"/>
  <path y="0px" fill="#000000" x="0px" fill-rule="nonzero" xmlns:xlink="http://www.w3.org/1999/xlink" version="1.1" stroke-linecap="butt" stroke-opacity="1" stroke-dasharray="none" fill-opacity="1" xml:space="preserve" stroke="none" stroke-width="1px" stroke-miterlimit="4" stroke-linejoin="miter" d="M126.462,53.033L113.303,56.322C111.289,60.232,110.145,64.658,110.145,69.35C110.145,74.042,111.289,78.469,113.303,82.378L126.462,85.668C126.462,85.668,138.701,81.589,138.701,69.35C138.701,57.112,126.462,53.033,126.462,53.033ZM126.462,53.033"/>
</g>
  <g id="Ultralight-M" transform="matrix(1.0,0.0,0.0,1.0,491.6496447465551,1021.4196642778052)">  <path stroke="none" y="0px" stroke-miterlimit="4" fill="#000000" version="1.1" stroke-dasharray="none" stroke-linejoin="miter" xmlns:xlink="http://www.w3.org/1999/xlink" fill-rule="nonzero" fill-opacity="1" stroke-linecap="butt" stroke-width="1px" x="0px" stroke-opacity="1" xml:space="preserve" d="M104.811,55.231C105.8,50.268,103.015,45.049,98.586,42.834C92.413,39.748,82.119,42.498,77.472,44.021C77.398,43.997,77.325,43.975,77.251,43.952C72.271,51.179,69.35,59.929,69.35,69.35C69.35,78.771,72.271,87.522,77.251,94.749C77.324,94.726,77.398,94.703,77.472,94.68C82.119,96.202,92.413,98.953,98.586,95.867C103.015,93.652,105.8,88.432,104.811,83.47C104.404,82.497,103.6,80.123,103.545,79.939C102.532,76.584,101.986,73.03,101.986,69.35C101.986,65.671,102.532,62.116,103.545,58.762C103.6,58.578,104.404,56.204,104.811,55.231ZM104.811,55.231"/>
  <path version="1.1" stroke-opacity="1" stroke-miterlimit="4" stroke="none" stroke-dasharray="none" x="0px" fill-opacity="1" y="0px" fill-rule="nonzero" xml:space="preserve" stroke-width="1px" stroke-linecap="butt" fill="#000000" xmlns:xlink="http://www.w3.org/1999/xlink" stroke-linejoin="miter" d="M23.569,48.506C7.081,56.964,0,69.35,0,69.35C0,69.35,7.081,81.737,23.569,90.194C29.142,84.979,32.635,77.567,32.635,69.35C32.635,61.133,29.142,53.721,23.569,48.506ZM16.317,69.35C14.064,69.35,12.238,67.524,12.238,65.271C12.238,63.018,14.064,61.191,16.317,61.191C18.57,61.191,20.397,63.018,20.397,65.271C20.397,67.524,18.57,69.35,16.317,69.35ZM16.317,69.35"/>
  <path xml:space="preserve" fill-rule="nonzero" fill-opacity="1" stroke-dasharray="none" xmlns:xlink="http://www.w3.org/1999/xlink" stroke-linejoin="miter" stroke-opacity="1" x="0px" stroke-width="1px" y="0px" fill="#000000" stroke-miterlimit="4" stroke="none" stroke-linecap="butt" version="1.1" d="M68.87,41.875C66.664,40.167,63.937,38.165,62.007,37.123C49.725,30.484,42.839,37.062,39.452,42.739C36.663,43.382,34.039,44.162,31.572,45.045C37.307,51.524,40.794,60.037,40.794,69.35C40.794,78.664,37.307,87.176,31.572,93.656C34.038,94.539,36.662,95.319,39.451,95.962C42.839,101.639,49.724,108.217,62.007,101.578C63.936,100.536,66.664,98.534,68.87,96.826C68.872,96.826,68.875,96.825,68.877,96.825C64.002,88.806,61.191,79.4,61.191,69.35C61.191,59.301,64.002,49.894,68.878,41.876C68.875,41.876,68.873,41.875,68.87,41.875ZM68.87,41.875"/>
  <path xmlns:xlink="http://www.w3.org/1999/xlink" stroke-width="1px" x="0px" stroke="none" fill="#000000" xml:space="preserve" stroke-dasharray="none" fill-opacity="1" version="1.1" stroke-linecap="butt" stroke-opacity="1" stroke-miterlimit="4" fill-rule="nonzero" stroke-linejoin="miter" y="0px" d="M126.462,53.033L113.303,56.322C111.289,60.232,110.145,64.658,110.145,69.35C110.145,74.042,111.289,78.469,113.303,82.378L126.462,85.668C126.462,85.668,138.701,81.589,138.701,69.35C138.701,57.112,126.462,53.033,126.462,53.033ZM126.462,53.033"/>
</g>
  <g id="Black-S" transform="matrix(1.0,0.0,0.0,1.0,2880.3786718365527,606.4686913678026)">  <path xmlns:xlink="http://www.w3.org/1999/xlink" stroke-width="1px" stroke-linejoin="miter" stroke-dasharray="none" y="0px" fill-opacity="1" stroke-linecap="butt" fill="#000000" version="1.1" x="0px" stroke="none" xml:space="preserve" stroke-opacity="1" stroke-miterlimit="4" fill-rule="nonzero" d="M82.067,43.246C82.841,39.36,80.661,35.273,77.193,33.539C72.36,31.122,64.299,33.276,60.66,34.468C60.603,34.45,60.545,34.432,60.488,34.414C56.588,40.073,54.301,46.925,54.301,54.301C54.301,61.678,56.588,68.53,60.488,74.188C60.545,74.17,60.603,74.153,60.66,74.134C64.299,75.326,72.36,77.48,77.193,75.064C80.661,73.329,82.841,69.242,82.067,65.357C81.748,64.595,81.119,62.736,81.075,62.592C80.283,59.965,79.855,57.182,79.855,54.301C79.855,51.42,80.283,48.637,81.075,46.011C81.119,45.866,81.748,44.007,82.067,43.246ZM82.067,43.246"/>
  <path stroke-linejoin="miter" xml:space="preserve" stroke-opacity="1" stroke="none" stroke-width="1px" stroke-linecap="butt" version="1.1" fill="#000000" fill-opacity="1" xmlns:xlink="http://www.w3.org/1999/xlink" stroke-miterlimit="4" x="0px" y="0px" fill-rule="nonzero" stroke-dasharray="none" d="M18.454,37.98C5.544,44.602,0,54.301,0,54.301C0,54.301,5.544,64,18.454,70.622C22.818,66.539,25.554,60.735,25.554,54.301C25.554,47.867,22.818,42.064,18.454,37.98ZM12.776,54.301C11.012,54.301,9.582,52.871,9.582,51.107C9.582,49.343,11.012,47.913,12.776,47.913C14.541,47.913,15.971,49.343,15.971,51.107C15.971,52.871,14.541,54.301,12.776,54.301ZM12.776,54.301"/>
  <path stroke-linejoin="miter" stroke-dasharray="none" y="0px" stroke-miterlimit="4" stroke-opacity="1" stroke-width="1px" version="1.1" stroke-linecap="butt" xml:space="preserve" fill="#000000" x="0px" fill-opacity="1" fill-rule="nonzero" xmlns:xlink="http://www.w3.org/1999/xlink" stroke="none" d="M53.925,32.788C52.198,31.45,50.062,29.883,48.552,29.067C38.934,23.869,33.543,29.02,30.891,33.465C28.707,33.968,26.652,34.579,24.721,35.27C29.211,40.343,31.942,47.009,31.942,54.301C31.942,61.594,29.211,68.259,24.721,73.333C26.652,74.024,28.707,74.635,30.89,75.138C33.543,79.583,38.934,84.734,48.551,79.536C50.062,78.719,52.198,77.152,53.925,75.815C53.927,75.815,53.929,75.814,53.931,75.814C50.113,69.535,47.913,62.17,47.913,54.301C47.913,46.432,50.113,39.067,53.931,32.789C53.929,32.789,53.927,32.788,53.925,32.788ZM53.925,32.788"/>
  <path fill="#000000" stroke-opacity="1" xmlns:xlink="http://www.w3.org/1999/xlink" xml:space="preserve" stroke-width="1px" fill-rule="nonzero" stroke-linejoin="miter" fill-opacity="1" stroke-dasharray="none" stroke="none" stroke-linecap="butt" version="1.1" x="0px" y="0px" stroke-miterlimit="4" d="M99.02,41.525L88.716,44.1C87.14,47.162,86.243,50.627,86.243,54.301C86.243,57.975,87.14,61.441,88.716,64.502L99.02,67.078C99.02,67.078,108.603,63.884,108.603,54.301C108.603,44.719,99.02,41.525,99.02,41.525ZM99.02,41.525"/>
</g>
  <g id="Heavy-S" transform="matrix(1.0,0.0,0.0,1.0,2583.6686718365527,606.4686913678026)">  <path xml:space="preserve" stroke-linejoin="miter" fill-opacity="1" stroke-width="1px" x="0px" y="0px" fill-rule="nonzero" xmlns:xlink="http://www.w3.org/1999/xlink" stroke-linecap="butt" stroke-dasharray="none" stroke="none" fill="#000000" version="1.1" stroke-miterlimit="4" stroke-opacity="1" d="M82.067,43.246C82.841,39.36,80.661,35.273,77.193,33.539C72.36,31.122,64.299,33.276,60.66,34.468C60.603,34.45,60.545,34.432,60.488,34.414C56.588,40.073,54.301,46.925,54.301,54.301C54.301,61.678,56.588,68.53,60.488,74.188C60.545,74.17,60.603,74.153,60.66,74.134C64.299,75.326,72.36,77.48,77.193,75.064C80.661,73.329,82.841,69.242,82.067,65.357C81.748,64.595,81.119,62.736,81.075,62.592C80.283,59.965,79.855,57.182,79.855,54.301C79.855,51.42,80.283,48.637,81.075,46.011C81.119,45.866,81.748,44.007,82.067,43.246ZM82.067,43.246"/>
  <path version="1.1" x="0px" stroke="none" y="0px" stroke-width="1px" stroke-dasharray="none" fill-opacity="1" stroke-miterlimit="4" stroke-linejoin="miter" stroke-linecap="butt" xmlns:xlink="http://www.w3.org/1999/xlink" stroke-opacity="1" fill-rule="nonzero" fill="#000000" xml:space="preserve" d="M18.454,37.98C5.544,44.602,0,54.301,0,54.301C0,54.301,5.544,64,18.454,70.622C22.818,66.539,25.554,60.735,25.554,54.301C25.554,47.867,22.818,42.064,18.454,37.98ZM12.776,54.301C11.012,54.301,9.582,52.871,9.582,51.107C9.582,49.343,11.012,47.913,12.776,47.913C14.541,47.913,15.971,49.343,15.971,51.107C15.971,52.871,14.541,54.301,12.776,54.301ZM12.776,54.301"/>
  <path fill-opacity="1" stroke-dasharray="none" stroke-miterlimit="4" stroke-opacity="1" fill-rule="nonzero" xmlns:xlink="http://www.w3.org/1999/xlink" fill="#000000" stroke="none" x="0px" y="0px" xml:space="preserve" stroke-width="1px" version="1.1" stroke-linejoin="miter" stroke-linecap="butt" d="M53.925,32.788C52.198,31.45,50.062,29.883,48.552,29.067C38.934,23.869,33.543,29.02,30.891,33.465C28.707,33.968,26.652,34.579,24.721,35.27C29.211,40.343,31.942,47.009,31.942,54.301C31.942,61.594,29.211,68.259,24.721,73.333C26.652,74.024,28.707,74.635,30.89,75.138C33.543,79.583,38.934,84.734,48.551,79.536C50.062,78.719,52.198,77.152,53.925,75.815C53.927,75.815,53.929,75.814,53.931,75.814C50.113,69.535,47.913,62.17,47.913,54.301C47.913,46.432,50.113,39.067,53.931,32.789C53.929,32.789,53.927,32.788,53.925,32.788ZM53.925,32.788"/>
  <path x="0px" stroke-opacity="1" stroke-linejoin="miter" fill-opacity="1" y="0px" stroke-linecap="butt" fill-rule="nonzero" version="1.1" fill="#000000" stroke-width="1px" stroke-miterlimit="4" xml:space="preserve" stroke-dasharray="none" stroke="none" xmlns:xlink="http://www.w3.org/1999/xlink" d="M99.02,41.525L88.716,44.1C87.14,47.162,86.243,50.627,86.243,54.301C86.243,57.975,87.14,61.441,88.716,64.502L99.02,67.078C99.02,67.078,108.603,63.884,108.603,54.301C108.603,44.719,99.02,41.525,99.02,41.525ZM99.02,41.525"/>
</g>
  <g id="Bold-S" transform="matrix(1.0,0.0,0.0,1.0,2286.9586718365526,606.4686913678026)">  <path stroke-dasharray="none" fill-rule="nonzero" xmlns:xlink="http://www.w3.org/1999/xlink" fill="#000000" x="0px" xml:space="preserve" y="0px" stroke="none" stroke-miterlimit="4" stroke-width="1px" fill-opacity="1" stroke-linejoin="miter" version="1.1" stroke-linecap="butt" stroke-opacity="1" d="M82.067,43.246C82.841,39.36,80.661,35.273,77.193,33.539C72.36,31.122,64.299,33.276,60.66,34.468C60.603,34.45,60.545,34.432,60.488,34.414C56.588,40.073,54.301,46.925,54.301,54.301C54.301,61.678,56.588,68.53,60.488,74.188C60.545,74.17,60.603,74.153,60.66,74.134C64.299,75.326,72.36,77.48,77.193,75.064C80.661,73.329,82.841,69.242,82.067,65.357C81.748,64.595,81.119,62.736,81.075,62.592C80.283,59.965,79.855,57.182,79.855,54.301C79.855,51.42,80.283,48.637,81.075,46.011C81.119,45.866,81.748,44.007,82.067,43.246ZM82.067,43.246"/>
  <path xml:space="preserve" stroke-width="1px" stroke="none" stroke-linecap="butt" stroke-miterlimit="4" stroke-dasharray="none" x="0px" version="1.1" stroke-opacity="1" fill-opacity="1" fill-rule="nonzero" stroke-linejoin="miter" fill="#000000" y="0px" xmlns:xlink="http://www.w3.org/1999/xlink" d="M18.454,37.98C5.544,44.602,0,54.301,0,54.301C0,54.301,5.544,64,18.454,70.622C22.818,66.539,25.554,60.735,25.554,54.301C25.554,47.867,22.818,42.064,18.454,37.98ZM12.776,54.301C11.012,54.301,9.582,52.871,9.582,51.107C9.582,49.343,11.012,47.913,12.776,47.913C14.541,47.913,15.971,49.343,15.971,51.107C15.971,52.871,14.541,54.301,12.776,54.301ZM12.776,54.301"/>
  <path xml:space="preserve" xmlns:xlink="http://www.w3.org/1999/xlink" stroke-opacity="1" stroke="none" fill="#000000" stroke-dasharray="none" y="0px" x="0px" fill-opacity="1" stroke-width="1px" fill-rule="nonzero" version="1.1" stroke-linecap="butt" stroke-miterlimit="4" stroke-linejoin="miter" d="M53.925,32.788C52.198,31.45,50.062,29.883,48.552,29.067C38.934,23.869,33.543,29.02,30.891,33.465C28.707,33.968,26.652,34.579,24.721,35.27C29.211,40.343,31.942,47.009,31.942,54.301C31.942,61.594,29.211,68.259,24.721,73.333C26.652,74.024,28.707,74.635,30.89,75.138C33.543,79.583,38.934,84.734,48.551,79.536C50.062,78.719,52.198,77.152,53.925,75.815C53.927,75.815,53.929,75.814,53.931,75.814C50.113,69.535,47.913,62.17,47.913,54.301C47.913,46.432,50.113,39.067,53.931,32.789C53.929,32.789,53.927,32.788,53.925,32.788ZM53.925,32.788"/>
  <path version="1.1" x="0px" stroke-miterlimit="4" stroke-opacity="1" stroke="none" y="0px" fill="#000000" fill-opacity="1" stroke-linecap="butt" xmlns:xlink="http://www.w3.org/1999/xlink" stroke-dasharray="none" xml:space="preserve" fill-rule="nonzero" stroke-width="1px" stroke-linejoin="miter" d="M99.02,41.525L88.716,44.1C87.14,47.162,86.243,50.627,86.243,54.301C86.243,57.975,87.14,61.441,88.716,64.502L99.02,67.078C99.02,67.078,108.603,63.884,108.603,54.301C108.603,44.719,99.02,41.525,99.02,41.525ZM99.02,41.525"/>
</g>
  <g id="Semibold-S" transform="matrix(1.0,0.0,0.0,1.0,1990.2486718365526,606.4686913678026)">  <path version="1.1" stroke-opacity="1" stroke="none" stroke-linejoin="miter" stroke-miterlimit="4" fill="#000000" fill-rule="nonzero" stroke-linecap="butt" stroke-width="1px" xml:space="preserve" xmlns:xlink="http://www.w3.org/1999/xlink" stroke-dasharray="none" fill-opacity="1" y="0px" x="0px" d="M82.067,43.246C82.841,39.36,80.661,35.273,77.193,33.539C72.36,31.122,64.299,33.276,60.66,34.468C60.603,34.45,60.545,34.432,60.488,34.414C56.588,40.073,54.301,46.925,54.301,54.301C54.301,61.678,56.588,68.53,60.488,74.188C60.545,74.17,60.603,74.153,60.66,74.134C64.299,75.326,72.36,77.48,77.193,75.064C80.661,73.329,82.841,69.242,82.067,65.357C81.748,64.595,81.119,62.736,81.075,62.592C80.283,59.965,79.855,57.182,79.855,54.301C79.855,51.42,80.283,48.637,81.075,46.011C81.119,45.866,81.748,44.007,82.067,43.246ZM82.067,43.246"/>
  <path stroke-linejoin="miter" stroke-linecap="butt" fill="#000000" x="0px" xml:space="preserve" stroke-width="1px" fill-opacity="1" xmlns:xlink="http://www.w3.org/1999/xlink" version="1.1" y="0px" stroke-opacity="1" stroke="none" stroke-dasharray="none" fill-rule="nonzero" stroke-miterlimit="4" d="M18.454,37.98C5.544,44.602,0,54.301,0,54.301C0,54.301,5.544,64,18.454,70.622C22.818,66.539,25.554,60.735,25.554,54.301C25.554,47.867,22.818,42.064,18.454,37.98ZM12.776,54.301C11.012,54.301,9.582,52.871,9.582,51.107C9.582,49.343,11.012,47.913,12.776,47.913C14.541,47.913,15.971,49.343,15.971,51.107C15.971,52.871,14.541,54.301,12.776,54.301ZM12.776,54.301"/>
  <path stroke-linecap="butt" stroke-dasharray="none" y="0px" x="0px" fill="#000000" stroke-width="1px" version="1.1" stroke-opacity="1" fill-opacity="1" fill-rule="nonzero" xml:space="preserve" stroke="none" xmlns:xlink="http://www.w3.org/1999/xlink" stroke-linejoin="miter" stroke-miterlimit="4" d="M53.925,32.788C52.198,31.45,50.062,29.883,48.552,29.067C38.934,23.869,33.543,29.02,30.891,33.465C28.707,33.968,26.652,34.579,24.721,35.27C29.211,40.343,31.942,47.009,31.942,54.301C31.942,61.594,29.211,68.259,24.721,73.333C26.652,74.024,28.707,74.635,30.89,75.138C33.543,79.583,38.934,84.734,48.551,79.536C50.062,78.719,52.198,77.152,53.925,75.815C53.927,75.815,53.929,75.814,53.931,75.814C50.113,69.535,47.913,62.17,47.913,54.301C47.913,46.432,50.113,39.067,53.931,32.789C53.929,32.789,53.927,32.788,53.925,32.788ZM53.925,32.788"/>
  <path stroke-linejoin="miter" stroke-width="1px" stroke-dasharray="none" stroke-opacity="1" y="0px" fill-opacity="1" fill-rule="nonzero" xml:space="preserve" stroke-miterlimit="4" stroke="none" x="0px" stroke-linecap="butt" version="1.1" xmlns:xlink="http://www.w3.org/1999/xlink" fill="#000000" d="M99.02,41.525L88.716,44.1C87.14,47.162,86.243,50.627,86.243,54.301C86.243,57.975,87.14,61.441,88.716,64.502L99.02,67.078C99.02,67.078,108.603,63.884,108.603,54.301C108.603,44.719,99.02,41.525,99.02,41.525ZM99.02,41.525"/>
</g>
  <g id="Medium-S" transform="matrix(1.0,0.0,0.0,1.0,1693.5386718365526,606.4686913678026)">  <path stroke-dasharray="none" stroke-width="1px" fill-opacity="1" xmlns:xlink="http://www.w3.org/1999/xlink" stroke-opacity="1" xml:space="preserve" fill="#000000" stroke-miterlimit="4" version="1.1" stroke-linejoin="miter" y="0px" stroke="none" fill-rule="nonzero" x="0px" stroke-linecap="butt" d="M82.067,43.246C82.841,39.36,80.661,35.273,77.193,33.539C72.36,31.122,64.299,33.276,60.66,34.468C60.603,34.45,60.545,34.432,60.488,34.414C56.588,40.073,54.301,46.925,54.301,54.301C54.301,61.678,56.588,68.53,60.488,74.188C60.545,74.17,60.603,74.153,60.66,74.134C64.299,75.326,72.36,77.48,77.193,75.064C80.661,73.329,82.841,69.242,82.067,65.357C81.748,64.595,81.119,62.736,81.075,62.592C80.283,59.965,79.855,57.182,79.855,54.301C79.855,51.42,80.283,48.637,81.075,46.011C81.119,45.866,81.748,44.007,82.067,43.246ZM82.067,43.246"/>
  <path fill="#000000" fill-opacity="1" xmlns:xlink="http://www.w3.org/1999/xlink" x="0px" version="1.1" y="0px" stroke-linecap="butt" xml:space="preserve" stroke-width="1px" fill-rule="nonzero" stroke="none" stroke-linejoin="miter" stroke-miterlimit="4" stroke-opacity="1" stroke-dasharray="none" d="M18.454,37.98C5.544,44.602,0,54.301,0,54.301C0,54.301,5.544,64,18.454,70.622C22.818,66.539,25.554,60.735,25.554,54.301C25.554,47.867,22.818,42.064,18.454,37.98ZM12.776,54.301C11.012,54.301,9.582,52.871,9.582,51.107C9.582,49.343,11.012,47.913,12.776,47.913C14.541,47.913,15.971,49.343,15.971,51.107C15.971,52.871,14.541,54.301,12.776,54.301ZM12.776,54.301"/>
  <path stroke-miterlimit="4" stroke-opacity="1" x="0px" fill="#000000" stroke="none" fill-opacity="1" stroke-dasharray="none" fill-rule="nonzero" version="1.1" stroke-linejoin="miter" stroke-linecap="butt" xmlns:xlink="http://www.w3.org/1999/xlink" y="0px" stroke-width="1px" xml:space="preserve" d="M53.925,32.788C52.198,31.45,50.062,29.883,48.552,29.067C38.934,23.869,33.543,29.02,30.891,33.465C28.707,33.968,26.652,34.579,24.721,35.27C29.211,40.343,31.942,47.009,31.942,54.301C31.942,61.594,29.211,68.259,24.721,73.333C26.652,74.024,28.707,74.635,30.89,75.138C33.543,79.583,38.934,84.734,48.551,79.536C50.062,78.719,52.198,77.152,53.925,75.815C53.927,75.815,53.929,75.814,53.931,75.814C50.113,69.535,47.913,62.17,47.913,54.301C47.913,46.432,50.113,39.067,53.931,32.789C53.929,32.789,53.927,32.788,53.925,32.788ZM53.925,32.788"/>
  <path stroke-dasharray="none" version="1.1" stroke-width="1px" xml:space="preserve" fill-rule="nonzero" stroke-linecap="butt" fill-opacity="1" stroke="none" fill="#000000" stroke-linejoin="miter" y="0px" stroke-miterlimit="4" x="0px" stroke-opacity="1" xmlns:xlink="http://www.w3.org/1999/xlink" d="M99.02,41.525L88.716,44.1C87.14,47.162,86.243,50.627,86.243,54.301C86.243,57.975,87.14,61.441,88.716,64.502L99.02,67.078C99.02,67.078,108.603,63.884,108.603,54.301C108.603,44.719,99.02,41.525,99.02,41.525ZM99.02,41.525"/>
</g>
  <g id="Regular-S" transform="matrix(1.0,0.0,0.0,1.0,1396.8286718365525,606.4686913678026)">  <path stroke-dasharray="none" stroke-opacity="1" x="0px" fill-opacity="1" stroke-linecap="butt" version="1.1" y="0px" stroke="none" xml:space="preserve" stroke-width="1px" fill="#000000" stroke-linejoin="miter" stroke-miterlimit="4" xmlns:xlink="http://www.w3.org/1999/xlink" fill-rule="nonzero" d="M82.067,43.246C82.841,39.36,80.661,35.273,77.193,33.539C72.36,31.122,64.299,33.276,60.66,34.468C60.603,34.45,60.545,34.432,60.488,34.414C56.588,40.073,54.301,46.925,54.301,54.301C54.301,61.678,56.588,68.53,60.488,74.188C60.545,74.17,60.603,74.153,60.66,74.134C64.299,75.326,72.36,77.48,77.193,75.064C80.661,73.329,82.841,69.242,82.067,65.357C81.748,64.595,81.119,62.736,81.075,62.592C80.283,59.965,79.855,57.182,79.855,54.301C79.855,51.42,80.283,48.637,81.075,46.011C81.119,45.866,81.748,44.007,82.067,43.246ZM82.067,43.246"/>
  <path fill-opacity="1" version="1.1" y="0px" x="0px" xmlns:xlink="http://www.w3.org/1999/xlink" stroke-linecap="butt" xml:space="preserve" stroke-width="1px" stroke-dasharray="none" fill-rule="nonzero" stroke-opacity="1" fill="#000000" stroke="none" stroke-miterlimit="4" stroke-linejoin="miter" d="M18.454,37.98C5.544,44.602,0,54.301,0,54.301C0,54.301,5.544,64,18.454,70.622C22.818,66.539,25.554,60.735,25.554,54.301C25.554,47.867,22.818,42.064,18.454,37.98ZM12.776,54.301C11.012,54.301,9.582,52.871,9.582,51.107C9.582,49.343,11.012,47.913,12.776,47.913C14.541,47.913,15.971,49.343,15.971,51.107C15.971,52.871,14.541,54.301,12.776,54.301ZM12.776,54.301"/>
  <path stroke-width="1px" fill-opacity="1" fill-rule="nonzero" version="1.1" xml:space="preserve" stroke-miterlimit="4" stroke="none" y="0px" fill="#000000" stroke-opacity="1" x="0px" stroke-linecap="butt" xmlns:xlink="http://www.w3.org/1999/xlink" stroke-dasharray="none" stroke-linejoin="miter" d="M53.925,32.788C52.198,31.45,50.062,29.883,48.552,29.067C38.934,23.869,33.543,29.02,30.891,33.465C28.707,33.968,26.652,34.579,24.721,35.27C29.211,40.343,31.942,47.009,31.942,54.301C31.942,61.594,29.211,68.259,24.721,73.333C26.652,74.024,28.707,74.635,30.89,75.138C33.543,79.583,38.934,84.734,48.551,79.536C50.062,78.719,52.198,77.152,53.925,75.815C53.927,75.815,53.929,75.814,53.931,75.814C50.113,69.535,47.913,62.17,47.913,54.301C47.913,46.432,50.113,39.067,53.931,32.789C53.929,32.789,53.927,32.788,53.925,32.788ZM53.925,32.788"/>
  <path stroke-opacity="1" y="0px" version="1.1" stroke-width="1px" fill="#000000" stroke="none" xmlns:xlink="http://www.w3.org/1999/xlink" fill-rule="nonzero" stroke-linejoin="miter" xml:space="preserve" stroke-linecap="butt" stroke-dasharray="none" stroke-miterlimit="4" fill-opacity="1" x="0px" d="M99.02,41.525L88.716,44.1C87.14,47.162,86.243,50.627,86.243,54.301C86.243,57.975,87.14,61.441,88.716,64.502L99.02,67.078C99.02,67.078,108.603,63.884,108.603,54.301C108.603,44.719,99.02,41.525,99.02,41.525ZM99.02,41.525"/>
</g>
  <g id="Light-S" transform="matrix(1.0,0.0,0.0,1.0,1100.1186718365527,606.4686913678026)">  <path xml:space="preserve" x="0px" stroke-opacity="1" fill-opacity="1" version="1.1" stroke-linecap="butt" stroke-miterlimit="4" fill="#000000" stroke="none" stroke-linejoin="miter" xmlns:xlink="http://www.w3.org/1999/xlink" stroke-dasharray="none" y="0px" stroke-width="1px" fill-rule="nonzero" d="M82.067,43.246C82.841,39.36,80.661,35.273,77.193,33.539C72.36,31.122,64.299,33.276,60.66,34.468C60.603,34.45,60.545,34.432,60.488,34.414C56.588,40.073,54.301,46.925,54.301,54.301C54.301,61.678,56.588,68.53,60.488,74.188C60.545,74.17,60.603,74.153,60.66,74.134C64.299,75.326,72.36,77.48,77.193,75.064C80.661,73.329,82.841,69.242,82.067,65.357C81.748,64.595,81.119,62.736,81.075,62.592C80.283,59.965,79.855,57.182,79.855,54.301C79.855,51.42,80.283,48.637,81.075,46.011C81.119,45.866,81.748,44.007,82.067,43.246ZM82.067,43.246"/>
  <path stroke="none" stroke-linejoin="miter" xmlns:xlink="http://www.w3.org/1999/xlink" version="1.1" fill="#000000" stroke-dasharray="none" x="0px" xml:space="preserve" y="0px" stroke-opacity="1" stroke-width="1px" stroke-linecap="butt" fill-opacity="1" stroke-miterlimit="4" fill-rule="nonzero" d="M18.454,37.98C5.544,44.602,0,54.301,0,54.301C0,54.301,5.544,64,18.454,70.622C22.818,66.539,25.554,60.735,25.554,54.301C25.554,47.867,22.818,42.064,18.454,37.98ZM12.776,54.301C11.012,54.301,9.582,52.871,9.582,51.107C9.582,49.343,11.012,47.913,12.776,47.913C14.541,47.913,15.971,49.343,15.971,51.107C15.971,52.871,14.541,54.301,12.776,54.301ZM12.776,54.301"/>
  <path version="1.1" stroke="none" fill-rule="nonzero" x="0px" xmlns:xlink="http://www.w3.org/1999/xlink" stroke-linecap="butt" stroke-dasharray="none" stroke-linejoin="miter" y="0px" xml:space="preserve" fill="#000000" stroke-miterlimit="4" stroke-opacity="1" stroke-width="1px" fill-opacity="1" d="M53.925,32.788C52.198,31.45,50.062,29.883,48.552,29.067C38.934,23.869,33.543,29.02,30.891,33.465C28.707,33.968,26.652,34.579,24.721,35.27C29.211,40.343,31.942,47.009,31.942,54.301C31.942,61.594,29.211,68.259,24.721,73.333C26.652,74.024,28.707,74.635,30.89,75.138C33.543,79.583,38.934,84.734,48.551,79.536C50.062,78.719,52.198,77.152,53.925,75.815C53.927,75.815,53.929,75.814,53.931,75.814C50.113,69.535,47.913,62.17,47.913,54.301C47.913,46.432,50.113,39.067,53.931,32.789C53.929,32.789,53.927,32.788,53.925,32.788ZM53.925,32.788"/>
  <path stroke="none" fill-rule="nonzero" fill="#000000" stroke-width="1px" stroke-dasharray="none" stroke-linecap="butt" x="0px" y="0px" xmlns:xlink="http://www.w3.org/1999/xlink" stroke-miterlimit="4" stroke-opacity="1" stroke-linejoin="miter" xml:space="preserve" version="1.1" fill-opacity="1" d="M99.02,41.525L88.716,44.1C87.14,47.162,86.243,50.627,86.243,54.301C86.243,57.975,87.14,61.441,88.716,64.502L99.02,67.078C99.02,67.078,108.603,63.884,108.603,54.301C108.603,44.719,99.02,41.525,99.02,41.525ZM99.02,41.525"/>
</g>
  <g id="Thin-S" transform="matrix(1.0,0.0,0.0,1.0,803.4086718365527,606.4686913678026)">  <path stroke-dasharray="none" stroke="none" fill="#000000" stroke-width="1px" fill-rule="nonzero" xml:space="preserve" stroke-opacity="1" x="0px" stroke-linecap="butt" version="1.1" stroke-miterlimit="4" xmlns:xlink="http://www.w3.org/1999/xlink" fill-opacity="1" stroke-linejoin="miter" y="0px" d="M82.067,43.246C82.841,39.36,80.661,35.273,77.193,33.539C72.36,31.122,64.299,33.276,60.66,34.468C60.603,34.45,60.545,34.432,60.488,34.414C56.588,40.073,54.301,46.925,54.301,54.301C54.301,61.678,56.588,68.53,60.488,74.188C60.545,74.17,60.603,74.153,60.66,74.134C64.299,75.326,72.36,77.48,77.193,75.064C80.661,73.329,82.841,69.242,82.067,65.357C81.748,64.595,81.119,62.736,81.075,62.592C80.283,59.965,79.855,57.182,79.855,54.301C79.855,51.42,80.283,48.637,81.075,46.011C81.119,45.866,81.748,44.007,82.067,43.246ZM82.067,43.246"/>
  <path fill-opacity="1" stroke-miterlimit="4" xml:space="preserve" x="0px" y="0px" stroke-width="1px" stroke-opacity="1" stroke="none" stroke-dasharray="none" xmlns:xlink="http://www.w3.org/1999/xlink" fill="#000000" fill-rule="nonzero" version="1.1" stroke-linejoin="miter" stroke-linecap="butt" d="M18.454,37.98C5.544,44.602,0,54.301,0,54.301C0,54.301,5.544,64,18.454,70.622C22.818,66.539,25.554,60.735,25.554,54.301C25.554,47.867,22.818,42.064,18.454,37.98ZM12.776,54.301C11.012,54.301,9.582,52.871,9.582,51.107C9.582,49.343,11.012,47.913,12.776,47.913C14.541,47.913,15.971,49.343,15.971,51.107C15.971,52.871,14.541,54.301,12.776,54.301ZM12.776,54.301"/>
  <path stroke-opacity="1" stroke-dasharray="none" stroke-width="1px" stroke-miterlimit="4" y="0px" fill-opacity="1" fill="#000000" x="0px" stroke="none" stroke-linecap="butt" version="1.1" fill-rule="nonzero" stroke-linejoin="miter" xml:space="preserve" xmlns:xlink="http://www.w3.org/1999/xlink" d="M53.925,32.788C52.198,31.45,50.062,29.883,48.552,29.067C38.934,23.869,33.543,29.02,30.891,33.465C28.707,33.968,26.652,34.579,24.721,35.27C29.211,40.343,31.942,47.009,31.942,54.301C31.942,61.594,29.211,68.259,24.721,73.333C26.652,74.024,28.707,74.635,30.89,75.138C33.543,79.583,38.934,84.734,48.551,79.536C50.062,78.719,52.198,77.152,53.925,75.815C53.927,75.815,53.929,75.814,53.931,75.814C50.113,69.535,47.913,62.17,47.913,54.301C47.913,46.432,50.113,39.067,53.931,32.789C53.929,32.789,53.927,32.788,53.925,32.788ZM53.925,32.788"/>
  <path y="0px" fill="#000000" x="0px" fill-rule="nonzero" xmlns:xlink="http://www.w3.org/1999/xlink" version="1.1" stroke-linecap="butt" stroke-opacity="1" stroke-dasharray="none" fill-opacity="1" xml:space="preserve" stroke="none" stroke-width="1px" stroke-miterlimit="4" stroke-linejoin="miter" d="M99.02,41.525L88.716,44.1C87.14,47.162,86.243,50.627,86.243,54.301C86.243,57.975,87.14,61.441,88.716,64.502L99.02,67.078C99.02,67.078,108.603,63.884,108.603,54.301C108.603,44.719,99.02,41.525,99.02,41.525ZM99.02,41.525"/>
</g>
  <g id="Ultralight-S" transform="matrix(1.0,0.0,0.0,1.0,506.69867183655265,606.4686913678026)">  <path stroke="none" y="0px" stroke-miterlimit="4" fill="#000000" version="1.1" stroke-dasharray="none" stroke-linejoin="miter" xmlns:xlink="http://www.w3.org/1999/xlink" fill-rule="nonzero" fill-opacity="1" stroke-linecap="butt" stroke-width="1px" x="0px" stroke-opacity="1" xml:space="preserve" d="M82.067,43.246C82.841,39.36,80.661,35.273,77.193,33.539C72.36,31.122,64.299,33.276,60.66,34.468C60.603,34.45,60.545,34.432,60.488,34.414C56.588,40.073,54.301,46.925,54.301,54.301C54.301,61.678,56.588,68.53,60.488,74.188C60.545,74.17,60.603,74.153,60.66,74.134C64.299,75.326,72.36,77.48,77.193,75.064C80.661,73.329,82.841,69.242,82.067,65.357C81.748,64.595,81.119,62.736,81.075,62.592C80.283,59.965,79.855,57.182,79.855,54.301C79.855,51.42,80.283,48.637,81.075,46.011C81.119,45.866,81.748,44.007,82.067,43.246ZM82.067,43.246"/>
  <path version="1.1" stroke-opacity="1" stroke-miterlimit="4" stroke="none" stroke-dasharray="none" x="0px" fill-opacity="1" y="0px" fill-rule="nonzero" xml:space="preserve" stroke-width="1px" stroke-linecap="butt" fill="#000000" xmlns:xlink="http://www.w3.org/1999/xlink" stroke-linejoin="miter" d="M18.454,37.98C5.544,44.602,0,54.301,0,54.301C0,54.301,5.544,64,18.454,70.622C22.818,66.539,25.554,60.735,25.554,54.301C25.554,47.867,22.818,42.064,18.454,37.98ZM12.776,54.301C11.012,54.301,9.582,52.871,9.582,51.107C9.582,49.343,11.012,47.913,12.776,47.913C14.541,47.913,15.971,49.343,15.971,51.107C15.971,52.871,14.541,54.301,12.776,54.301ZM12.776,54.301"/>
  <path xml:space="preserve" fill-rule="nonzero" fill-opacity="1" stroke-dasharray="none" xmlns:xlink="http://www.w3.org/1999/xlink" stroke-linejoin="miter" stroke-opacity="1" x="0px" stroke-width="1px" y="0px" fill="#000000" stroke-miterlimit="4" stroke="none" stroke-linecap="butt" version="1.1" d="M53.925,32.788C52.198,31.45,50.062,29.883,48.552,29.067C38.934,23.869,33.543,29.02,30.891,33.465C28.707,33.968,26.652,34.579,24.721,35.27C29.211,40.343,31.942,47.009,31.942,54.301C31.942,61.594,29.211,68.259,24.721,73.333C26.652,74.024,28.707,74.635,30.89,75.138C33.543,79.583,38.934,84.734,48.551,79.536C50.062,78.719,52.198,77.152,53.925,75.815C53.927,75.815,53.929,75.814,53.931,75.814C50.113,69.535,47.913,62.17,47.913,54.301C47.913,46.432,50.113,39.067,53.931,32.789C53.929,32.789,53.927,32.788,53.925,32.788ZM53.925,32.788"/>
  <path xmlns:xlink="http://www.w3.org/1999/xlink" stroke-width="1px" x="0px" stroke="none" fill="#000000" xml:space="preserve" stroke-dasharray="none" fill-opacity="1" version="1.1" stroke-linecap="butt" stroke-opacity="1" stroke-miterlimit="4" fill-rule="nonzero" stroke-linejoin="miter" y="0px" d="M99.02,41.525L88.716,44.1C87.14,47.162,86.243,50.627,86.243,54.301C86.243,57.975,87.14,61.441,88.716,64.502L99.02,67.078C99.02,67.078,108.603,63.884,108.603,54.301C108.603,44.719,99.02,41.525,99.02,41.525ZM99.02,41.525"/>
</g>
 </g>
</svg>
